<?xml version="1.0" encoding="UTF-8"?><!DOCTYPE svg PUBLIC "-//W3C//DTD SVG 1.1//EN" "http://www.w3.org/Graphics/SVG/1.1/DTD/svg11.dtd"><svg xmlns="http://www.w3.org/2000/svg" xmlns:xlink="http://www.w3.org/1999/xlink"><defs>
<linearGradient id="paint0_linear" x1="9.50008" y1="0" x2="9.50008" y2="19" gradientUnits="userSpaceOnUse">
<stop stop-color="#DF0E77"/>
<stop offset="1" stop-color="#390796"/>
</linearGradient>

<linearGradient id="paint0_linear" x1="-1" y1="-2.93002e-07" x2="20" y2="23" gradientUnits="userSpaceOnUse">
<stop stop-color="#D95C9B"/>
<stop offset="1" stop-color="#390796"/>
</linearGradient>

<linearGradient id="paint0_linear" x1="2.5" y1="2.5" x2="17.5" y2="22" gradientUnits="userSpaceOnUse">
<stop stop-color="#DF0E77"/>
<stop offset="1" stop-color="#390796"/>
</linearGradient>

<linearGradient id="paint0_linear" x1="-1" y1="-2.93002e-07" x2="20" y2="23" gradientUnits="userSpaceOnUse">
<stop stop-color="#D95C9B"/>
<stop offset="1" stop-color="#390796"/>
</linearGradient>

<linearGradient id="paint0_linear" x1="13.25" y1="2" x2="13.25" y2="18" gradientUnits="userSpaceOnUse">
<stop stop-color="#D95C9B"/>
<stop offset="1" stop-color="#390796"/>
</linearGradient>
<linearGradient id="paint1_linear" x1="6.5" y1="1" x2="6.5" y2="30" gradientUnits="userSpaceOnUse">
<stop stop-color="#D95C9B"/>
<stop offset="1" stop-color="#390796"/>
</linearGradient>
<linearGradient id="paint2_linear" x1="0" y1="17.5" x2="11" y2="17.5" gradientUnits="userSpaceOnUse">
<stop stop-color="#D95C9B"/>
<stop offset="1" stop-color="#390796"/>
</linearGradient>
<linearGradient id="paint3_linear" x1="0" y1="23.5" x2="12" y2="23.5" gradientUnits="userSpaceOnUse">
<stop stop-color="#D95C9B"/>
<stop offset="1" stop-color="#390796"/>
</linearGradient>

<path class="heart" id="b" d="m372.59 17.99c-48.54 0-92.99 26.12-118 67.99-24.79-42.41-67.41-68-115.18-68-72.86 0-131.09 59.68-138.55 141.94-0.59 3.63-3.02 22.76 4.35 53.94 10.61 44.98 35.13 85.89 70.89 118.29 11.89 10.79 71.34 64.75 178.37 161.87 108.86-97.12 169.34-151.07 181.43-161.86 35.76-32.41 60.28-73.31 70.89-118.3 7.37-31.17 4.94-50.3 4.36-53.93-7.47-82.26-65.69-141.94-138.56-141.94z"/>

<linearGradient id="paint0_linear" x1="6.49385" y1="17.7773" x2="6.49385" y2="23.9996" gradientUnits="userSpaceOnUse">
<stop stop-color="#390796"/>
<stop offset="1" stop-color="#DF0E77"/>
</linearGradient>
<linearGradient id="paint1_linear" x1="3.88894" y1="3.55556" x2="23.4445" y2="21.3333" gradientUnits="userSpaceOnUse">
<stop stop-color="#DF0E77"/>
<stop offset="1" stop-color="#390796"/>
</linearGradient>

<clipPath id="clip0">
<rect width="19" height="19.1606"/>
</clipPath>

<linearGradient id="paint0_linear" x1="23.2808" y1="7.2656" x2="9.85452" y2="26.7208" gradientUnits="userSpaceOnUse">
<stop stop-color="#DF0E77"/>
<stop offset="1" stop-color="#390796"/>
</linearGradient>

<clipPath id="clip0">
<rect width="27.6492" height="27.6492" transform="translate(14.5537) rotate(30.9268)"/>
</clipPath>

<linearGradient id="paint0_linear" x1="7.0073" y1="3.85997" x2="18.1041" y2="24.006" gradientUnits="userSpaceOnUse">
<stop stop-color="#DF0E77"/>
<stop offset="1" stop-color="#390796"/>
</linearGradient>

<clipPath id="clip0">
<rect width="33" height="33"/>
</clipPath>
</defs><symbol id="icon-actor" viewBox="0 0 16 19">
<path d="M15.4375 0.284668H3.26562C2.44714 0.284668 1.78125 0.950559 1.78125 1.76904V8.77114L0.961578 9.59081C0.341406 10.211 0 11.0354 0 11.9124C0 12.0923 0.0151407 12.274 0.0445313 12.4521L0.506469 15.2225C0.570297 15.6067 0.676281 15.9852 0.821453 16.3483L1.1875 17.2638V18.6909H5.34375V17.2638L5.54859 16.7517C5.60589 16.6083 5.65458 16.4626 5.69941 16.3159H14.8438V13.9409H15.4375V0.284668ZM2.375 1.76904C2.375 1.27801 2.77459 0.878418 3.26562 0.878418H4.15625V10.5438C3.95348 10.6771 3.79881 10.881 3.73677 11.1301L3.51411 12.0204C3.36033 12.635 3.13856 13.2341 2.85534 13.8005C2.8123 13.8872 2.72531 13.9409 2.62853 13.9409C2.489 13.9409 2.375 13.8269 2.375 13.6874V1.76904ZM4.75 18.0972H1.78125V17.5034H4.75V18.0972ZM4.9973 16.5315L4.84589 16.9097H1.68536L1.37275 16.128C1.24331 15.8044 1.14891 15.4672 1.0922 15.1252L0.630266 12.3547C0.605922 12.2087 0.59375 12.0599 0.59375 11.9124C0.59375 11.1939 0.873406 10.5185 1.38136 10.0106L1.78125 9.6107V13.6871C1.78125 14.1547 2.16125 14.5347 2.62853 14.5347C2.95153 14.5347 3.24158 14.3554 3.38645 14.0662C3.68927 13.4609 3.92558 12.8211 4.08975 12.1647L4.31241 11.2744C4.35723 11.0966 4.51636 10.9722 4.69953 10.9722C4.90645 10.9722 5.08102 11.134 5.09705 11.3406L5.3295 14.3607C5.339 14.4842 5.34375 14.608 5.34375 14.7321C5.34375 15.3514 5.22708 15.9567 4.9973 16.5315ZM5.92147 14.315L5.89297 13.9409H13.0625V14.5347H5.93008C5.92741 14.4613 5.92711 14.388 5.92147 14.315ZM14.25 15.7222H5.84547C5.88169 15.5262 5.90425 15.3279 5.9188 15.1284H13.6562V13.9409H14.25V15.7222ZM14.8438 13.3472H5.84695L5.68902 11.2952C5.65102 10.7982 5.24281 10.409 4.75 10.3835V0.878418H14.8438V13.3472Z"/>
<path d="M13.6562 2.06592H5.9375V12.1597H13.6562V2.06592ZM13.0625 3.25342H12.4688V2.65967H13.0625V3.25342ZM7.71875 4.44092H11.875V9.78467H7.71875V4.44092ZM11.875 3.84717H7.71875V2.65967H11.875V3.84717ZM7.125 4.44092H6.53125V3.84717H7.125V4.44092ZM7.125 5.03467V5.62842H6.53125V5.03467H7.125ZM7.125 6.22217V6.81592H6.53125V6.22217H7.125ZM7.125 7.40967V8.00342H6.53125V7.40967H7.125ZM7.125 8.59717V9.19092H6.53125V8.59717H7.125ZM7.125 9.78467V10.3784H6.53125V9.78467H7.125ZM7.71875 10.3784H11.875V11.5659H7.71875V10.3784ZM12.4688 9.78467H13.0625V10.3784H12.4688V9.78467ZM12.4688 9.19092V8.59717H13.0625V9.19092H12.4688ZM12.4688 8.00342V7.40967H13.0625V8.00342H12.4688ZM12.4688 6.81592V6.22217H13.0625V6.81592H12.4688ZM12.4688 5.62842V5.03467H13.0625V5.62842H12.4688ZM12.4688 4.44092V3.84717H13.0625V4.44092H12.4688ZM7.125 2.65967V3.25342H6.53125V2.65967H7.125ZM6.53125 10.9722H7.125V11.5659H6.53125V10.9722ZM12.4688 11.5659V10.9722H13.0625V11.5659H12.4688Z"/>
</symbol><symbol id="icon-arrow" viewBox="0 0 199.404 199.404">
<g>
	<polygon points="199.404,63.993 171.12,35.709 99.702,107.127 28.284,35.709 0,63.993 99.702,163.695 	"/>
</g>
<g>
</g>
<g>
</g>
<g>
</g>
<g>
</g>
<g>
</g>
<g>
</g>
<g>
</g>
<g>
</g>
<g>
</g>
<g>
</g>
<g>
</g>
<g>
</g>
<g>
</g>
<g>
</g>
<g>
</g>
</symbol><symbol id="icon-avatar" viewBox="0 0 25 25">
<path d="M12.5004 9.11768e-07C9.74526 -0.00105123 7.06697 0.908518 4.88225 2.58721C2.69752 4.26589 1.12886 6.61958 0.420296 9.28208C-0.288266 11.9446 -0.0969968 14.7666 0.964348 17.3092C2.02569 19.8517 3.8976 21.9722 6.28886 23.3408C6.29636 23.3443 6.30236 23.3498 6.30986 23.3528C8.19449 24.4321 10.3286 25 12.5004 25C14.6723 25 16.8064 24.4321 18.691 23.3528C18.6985 23.3493 18.7045 23.3438 18.712 23.3403C21.103 21.9716 22.9747 19.8511 24.0359 17.3087C25.097 14.7662 25.2882 11.9444 24.5797 9.28202C23.8712 6.61967 22.3026 4.26611 20.1181 2.58745C17.9335 0.908792 15.2555 -0.000858447 12.5004 9.11768e-07ZM4.00033 12.5001C3.99993 11.1171 4.33701 9.75485 4.98232 8.53159C5.62764 7.30833 6.5617 6.26101 7.70346 5.4805C8.84521 4.69999 10.1602 4.20987 11.5343 4.05266C12.9083 3.89546 14.3 4.07591 15.5886 4.57838C16.8771 5.08084 18.0236 5.89013 18.9285 6.93603C19.8334 7.98193 20.4695 9.23285 20.7815 10.5802C21.0934 11.9276 21.0719 13.3308 20.7188 14.668C20.3657 16.0052 19.6916 17.236 18.755 18.2537C18.4738 17.2546 17.958 16.3371 17.2506 15.5776C16.5432 14.8181 15.6646 14.2386 14.688 13.8872C15.4848 13.4088 16.1028 12.6824 16.4475 11.8193C16.7921 10.9562 16.8443 10.0039 16.5961 9.10832C16.3479 8.2127 15.813 7.42312 15.0733 6.86051C14.3336 6.29789 13.4298 5.99326 12.5004 5.99326C11.5711 5.99326 10.6673 6.29789 9.92758 6.86051C9.18785 7.42312 8.65293 8.2127 8.40473 9.10832C8.15654 10.0039 8.20877 10.9562 8.5534 11.8193C8.89804 12.6824 9.51609 13.4088 10.3129 13.8872C9.33629 14.2386 8.45772 14.8181 7.75031 15.5776C7.0429 16.3371 6.52711 17.2546 6.24586 18.2537C4.80283 16.685 4.00144 14.6316 4.00033 12.5001ZM12.5004 13.5002C11.8576 13.5002 11.2293 13.3095 10.6948 12.9524C10.1603 12.5953 9.74378 12.0877 9.49779 11.4938C9.2518 10.9 9.18744 10.2465 9.31284 9.61606C9.43825 8.98562 9.74778 8.40652 10.2023 7.95199C10.6568 7.49747 11.2359 7.18793 11.8664 7.06253C12.4968 6.93712 13.1503 7.00149 13.7442 7.24747C14.338 7.49346 14.8456 7.91003 15.2027 8.44449C15.5599 8.97896 15.7505 9.60732 15.7505 10.2501C15.7494 11.1118 15.4067 11.9378 14.7974 12.5471C14.1881 13.1563 13.3621 13.4991 12.5004 13.5002ZM7.00037 22.5972V20.0002C7.00037 18.5415 7.57984 17.1426 8.6113 16.1111C9.64276 15.0796 11.0417 14.5002 12.5004 14.5002C13.9591 14.5002 15.3581 15.0796 16.3896 16.1111C17.421 17.1426 18.0005 18.5415 18.0005 20.0002V22.5972C16.3135 23.5179 14.4223 24.0003 12.5004 24.0003C10.5786 24.0003 8.68741 23.5179 7.00037 22.5972ZM19.0005 21.9807V20.0002C19.0005 19.8112 18.988 19.6257 18.972 19.4412C20.3689 18.1414 21.342 16.4511 21.7646 14.5904C22.1872 12.7298 22.0397 10.7849 21.3414 9.00927C20.643 7.23359 19.4262 5.70935 17.8493 4.63506C16.2724 3.56076 14.4085 2.9862 12.5004 2.9862C10.5924 2.9862 8.72851 3.56076 7.15161 4.63506C5.57471 5.70935 4.35784 7.23359 3.65948 9.00927C2.96113 10.7849 2.81365 12.7298 3.23626 14.5904C3.65887 16.4511 4.63198 18.1414 6.02885 19.4412C6.01285 19.6257 6.00035 19.8112 6.00035 20.0002V21.9807C3.97451 20.5927 2.44619 18.5927 1.63911 16.2733C0.832027 13.954 0.788574 11.4373 1.51511 9.09146C2.24165 6.74566 3.70002 4.69403 5.67673 3.23691C7.65345 1.77978 10.0447 0.993679 12.5004 0.993679C14.9562 0.993679 17.3474 1.77978 19.3241 3.23691C21.3009 4.69403 22.7592 6.74566 23.4858 9.09146C24.2123 11.4373 24.1688 13.954 23.3618 16.2733C22.5547 18.5927 21.0264 20.5927 19.0005 21.9807Z"/>
</symbol><symbol id="icon-cach" viewBox="0 0 32 32">
<path d="M4.5 27C4.5 28.3785 5.6215 29.5 7 29.5H12C13.3785 29.5 14.5 28.3785 14.5 27V19.5H4.5V27ZM5.5 27V26.5H7.5V28.5H7C6.173 28.5 5.5 27.827 5.5 27ZM10.5 23.5V25.5H8.5V23.5H10.5ZM8.5 22.5V20.5H10.5V22.5H8.5ZM11.5 23.5H13.5V25.5H11.5V23.5ZM10.5 26.5V28.5H8.5V26.5H10.5ZM7.5 25.5H5.5V23.5H7.5V25.5ZM12 28.5H11.5V26.5H13.5V27C13.5 27.827 12.827 28.5 12 28.5ZM13.5 22.5H11.5V20.5H13.5V22.5ZM7.5 20.5V22.5H5.5V20.5H7.5Z"/>
<path d="M4.5 18.5H14.5V12.5H4.5V18.5ZM5.5 13.5H13.5V17.5H5.5V13.5Z"/>
<path d="M6.5 3.5H8.5V4.5H6.5V3.5Z"/>
<path d="M10.5 3.5H12.5V4.5H10.5V3.5Z"/>
<path d="M6.5 5.5H12.5V6.5H6.5V5.5Z"/>
<path d="M30 6.99993H18.5V6.49993C18.5 5.67293 17.827 4.99993 17 4.99993H16.288C15.966 4.26593 15.3035 3.71443 14.5 3.55043V0.0654297L12.5635 1.35643L11.5 0.29293L10.5 1.29293L9.5 0.29293L8.5 1.29293L7.5 0.29293L6.4365 1.35643L4.5 0.0654297V3.55043C3.6965 3.71443 3.034 4.26593 2.712 4.99993H2C1.173 4.99993 0.5 5.67293 0.5 6.49993V10.4999C0.5 11.3269 1.173 11.9999 2 11.9999H2.5V26.9999C2.5 29.4809 4.5185 31.4999 7 31.4999H12C14.4815 31.4999 16.5 29.4809 16.5 26.9999V22.9999H30C30.827 22.9999 31.5 22.3269 31.5 21.4999V8.49993C31.5 7.67293 30.827 6.99993 30 6.99993ZM30 7.99993C30.276 7.99993 30.5 8.22443 30.5 8.49993V8.99993H18.5V7.99993H30ZM18.5 9.99993H30.5V10.9999H18.408C18.464 10.8429 18.5 10.6759 18.5 10.4999V9.99993ZM17 5.99993C17.276 5.99993 17.5 6.22443 17.5 6.49993V10.4999C17.5 10.7754 17.276 10.9999 17 10.9999H16.5V5.99993H17ZM5.5 1.93443L6.5635 2.64343L7.5 1.70693L8.5 2.70693L9.5 1.70693L10.5 2.70693L11.5 1.70693L12.4365 2.64343L13.5 1.93443V7.49993H5.5V1.93443ZM4.5 4.59193V8.49993H14.5V4.59193C15.0805 4.79893 15.5 5.34893 15.5 5.99993V9.49993H3.5V5.99993C3.5 5.34893 3.9195 4.79893 4.5 4.59193ZM2 10.9999C1.724 10.9999 1.5 10.7754 1.5 10.4999V6.49993C1.5 6.22443 1.724 5.99993 2 5.99993H2.5V10.9999H2ZM12 30.4999H7C5.0705 30.4999 3.5 28.9299 3.5 26.9999V10.4999H15.5V26.9999C15.5 28.9299 13.9295 30.4999 12 30.4999ZM30 21.9999H16.5V11.9999H17H30.5V21.4999C30.5 21.7754 30.276 21.9999 30 21.9999Z"/>
<path d="M25.5 16H23.5V21H28.5V18H29.5V14H25.5V16ZM27.5 20H24.5V17H25.5V18H27.5V20ZM26.5 15H28.5V17H26.5V15Z"/>
<path d="M19.5 18H21.5V19H19.5V18Z"/>
<path d="M17.5 18H18.5V19H17.5V18Z"/>
<path d="M17.5 20H21.5V21H17.5V20Z"/>
<path d="M17.5 16H21.5V17H17.5V16Z"/>
</symbol><symbol id="icon-calendar" viewBox="0 0 19 19">
<path d="M14.5104 9.3313H15.8358C16.1354 9.3313 16.3792 9.08753 16.3792 8.78791V7.46258C16.3792 7.16296 16.1354 6.91919 15.8358 6.91919H14.5104C14.2108 6.91919 13.967 7.16296 13.967 7.46258V8.78791C13.967 9.08753 14.2108 9.3313 14.5104 9.3313ZM14.5237 7.47583H15.8225V8.77466H14.5237V7.47583ZM14.5104 12.8567H15.8358C16.1354 12.8567 16.3792 12.6129 16.3792 12.3133V10.988C16.3792 10.6884 16.1354 10.4446 15.8358 10.4446H14.5104C14.2108 10.4446 13.967 10.6884 13.967 10.988V12.3133C13.967 12.6129 14.2108 12.8567 14.5104 12.8567ZM14.5237 11.0012H15.8225V12.3001H14.5237V11.0012ZM10.7284 9.3313H12.0537C12.3533 9.3313 12.5971 9.08753 12.5971 8.78791V7.46258C12.5971 7.16296 12.3533 6.91919 12.0537 6.91919H10.7284C10.4288 6.91919 10.185 7.16296 10.185 7.46258V8.78791C10.185 9.08753 10.4288 9.3313 10.7284 9.3313ZM10.7417 7.47583H12.0405V8.77466H10.7417V7.47583ZM4.48965 13.8047H3.16433C2.86471 13.8047 2.62093 14.0485 2.62093 14.3481V15.6734C2.62093 15.973 2.86471 16.2168 3.16433 16.2168H4.48965C4.78927 16.2168 5.03304 15.973 5.03304 15.6734V14.3481C5.03304 14.0485 4.78927 13.8047 4.48965 13.8047ZM4.4764 15.6602H3.17758V14.3613H4.4764V15.6602ZM4.48965 6.91919H3.16433C2.86471 6.91919 2.62093 7.16296 2.62093 7.46258V8.78791C2.62093 9.08753 2.86471 9.3313 3.16433 9.3313H4.48965C4.78927 9.3313 5.03304 9.08753 5.03304 8.78791V7.46258C5.03304 7.16293 4.78927 6.91919 4.48965 6.91919ZM4.4764 8.77466H3.17758V7.47583H4.4764V8.77466ZM10.7284 12.774H12.0537C12.3533 12.774 12.5971 12.5303 12.5971 12.2307V10.9053C12.5971 10.6057 12.3533 10.3619 12.0537 10.3619H10.7284C10.4288 10.3619 10.185 10.6057 10.185 10.9053V12.2307C10.185 12.5303 10.4288 12.774 10.7284 12.774ZM10.7417 10.9186H12.0405V12.2174H10.7417V10.9186ZM16.6556 1.27189H15.4656V0.846353C15.4656 0.379666 15.086 0 14.6193 0H14.4915C14.0248 0 13.6452 0.379666 13.6452 0.846353V1.27189H5.35493V0.846353C5.35493 0.379666 4.97526 0 4.50858 0H4.38077C3.91408 0 3.53442 0.379666 3.53442 0.846353V1.27189H2.34451C1.57616 1.27189 0.95105 1.89699 0.95105 2.66534V17.6084C0.95105 18.3757 1.5753 19 2.34265 19H16.6575C17.4249 19 18.0491 18.3757 18.0491 17.6084V2.66534C18.0491 1.89699 17.424 1.27189 16.6556 1.27189ZM14.2018 0.846353C14.2018 0.686598 14.3318 0.556641 14.4915 0.556641H14.6193C14.7791 0.556641 14.909 0.686598 14.909 0.846353V1.27189H14.2018V0.846353ZM4.0911 0.846353C4.0911 0.686598 4.22105 0.556641 4.38081 0.556641H4.50861C4.66837 0.556641 4.79833 0.686598 4.79833 0.846353V1.27189H4.09113L4.0911 0.846353ZM17.4924 17.6084C17.4924 18.0688 17.1179 18.4434 16.6575 18.4434H2.34261C1.8822 18.4434 1.50765 18.0688 1.50765 17.6084V17.6067C1.74085 17.7824 2.03071 17.8867 2.34451 17.8867H13.6288C14.001 17.8867 14.351 17.7418 14.6142 17.4786L17.4924 14.6003V17.6084ZM14.3302 16.9753C14.352 16.8853 14.3639 16.7914 14.3639 16.6947V14.8368C14.3639 14.4865 14.6489 14.2015 14.9992 14.2015H16.8571C16.9537 14.2015 17.0476 14.1896 17.1377 14.1678L14.3302 16.9753ZM17.4924 5.24927H5.63325C5.47954 5.24927 5.35493 5.37388 5.35493 5.52759C5.35493 5.6813 5.47954 5.80591 5.63325 5.80591H17.4924V13.0095C17.4924 13.3599 17.2074 13.6449 16.8571 13.6449H14.9992C14.342 13.6449 13.8072 14.1796 13.8072 14.8369V16.6947C13.8072 17.0451 13.5222 17.3301 13.1719 17.3301H2.34451C1.88309 17.3301 1.50769 16.9547 1.50769 16.4933V5.80591H4.51997C4.67368 5.80591 4.79829 5.6813 4.79829 5.52759C4.79829 5.37388 4.67368 5.24927 4.51997 5.24927H1.50765V2.66534C1.50765 2.20393 1.88305 1.82853 2.34447 1.82853H3.53442V2.64686C3.53442 3.11355 3.91408 3.49322 4.38077 3.49322C4.53448 3.49322 4.65909 3.3686 4.65909 3.2149C4.65909 3.06119 4.53448 2.93658 4.38077 2.93658C4.22102 2.93658 4.09106 2.80662 4.09106 2.64686V1.82853H13.6452V2.64686C13.6452 3.11355 14.0248 3.49322 14.4915 3.49322C14.6452 3.49322 14.7698 3.3686 14.7698 3.2149C14.7698 3.06119 14.6452 2.93658 14.4915 2.93658C14.3318 2.93658 14.2018 2.80662 14.2018 2.64686V1.82853H16.6556C17.117 1.82853 17.4924 2.20393 17.4924 2.66534V5.24927ZM4.48965 10.3619H3.16433C2.86471 10.3619 2.62093 10.6057 2.62093 10.9053V12.2307C2.62093 12.5303 2.86471 12.774 3.16433 12.774H4.48965C4.78927 12.774 5.03304 12.5303 5.03304 12.2307V10.9053C5.03304 10.6057 4.78927 10.3619 4.48965 10.3619ZM4.4764 12.2174H3.17758V10.9186H4.4764V12.2174ZM6.94637 9.3313H8.27169C8.57131 9.3313 8.81508 9.08753 8.81508 8.78791V7.46258C8.81508 7.16296 8.57131 6.91919 8.27169 6.91919H6.94637C6.64674 6.91919 6.40297 7.16296 6.40297 7.46258V8.78791C6.40297 9.08753 6.64674 9.3313 6.94637 9.3313ZM6.95961 7.47583H8.25844V8.77466H6.95961V7.47583ZM10.7413 15.6602C10.7344 15.5126 10.6126 15.3951 10.4633 15.3951C10.3096 15.3951 10.185 15.5197 10.185 15.6734C10.185 15.973 10.4287 16.2168 10.7284 16.2168H12.0537C12.3533 16.2168 12.5971 15.973 12.5971 15.6734V14.3481C12.5971 14.0485 12.3533 13.8047 12.0537 13.8047H10.7284C10.4287 13.8047 10.185 14.0485 10.185 14.3481V14.7303C10.185 14.884 10.3096 15.0086 10.4633 15.0086C10.617 15.0086 10.7416 14.884 10.7416 14.7303V14.3613H12.0404V15.6602H10.7413ZM6.94637 12.774H8.27169C8.57131 12.774 8.81508 12.5303 8.81508 12.2307V10.9053C8.81508 10.6057 8.57131 10.3619 8.27169 10.3619H6.94637C6.64674 10.3619 6.40297 10.6057 6.40297 10.9053V12.2307C6.40297 12.5303 6.64674 12.774 6.94637 12.774ZM6.95961 10.9186H8.25844V12.2174H6.95961V10.9186ZM6.94637 16.2168H8.27169C8.57131 16.2168 8.81508 15.973 8.81508 15.6734V14.3481C8.81508 14.0485 8.57131 13.8047 8.27169 13.8047H6.94637C6.64674 13.8047 6.40297 14.0485 6.40297 14.3481V15.6734C6.40297 15.973 6.64674 16.2168 6.94637 16.2168ZM6.95961 14.3613H8.25844V15.6602H6.95961V14.3613Z"/>

</symbol><symbol id="icon-check" viewBox="0 0 515.556 515.556"><path d="m0 274.226 176.549 176.886 339.007-338.672-48.67-47.997-290.337 290-128.553-128.552z"/></symbol><symbol id="icon-circle" viewBox="0 0 23 23">
<circle cx="11.5" cy="11.5" r="10.5" stroke-width="2"/>
<circle cx="11.5" cy="11.5" r="6.5" stroke-width="2"/>

</symbol><symbol id="icon-clock" viewBox="0 0 23 23">
<circle cx="11.5" cy="11.5" r="10.5" stroke-width="2"/>
<line x1="11.5" y1="14" x2="11.5" y2="6"/>
<line x1="17" y1="12.5" x2="11" y2="12.5"/>

</symbol><symbol id="icon-cross" viewBox="0 0 20 20">
<path d="M10 0V19.5M0 10H19.5"/>
</symbol><symbol id="icon-date" viewBox="0 0 512 512">
<g>
	<g>
		<path d="M437.02,74.98C388.667,26.629,324.38,0,256,0S123.333,26.629,74.98,74.98C26.629,123.333,0,187.62,0,256
			s26.629,132.667,74.98,181.02C123.333,485.371,187.62,512,256,512s132.667-26.629,181.02-74.98
			C485.371,388.667,512,324.38,512,256S485.371,123.333,437.02,74.98z M256,472c-119.103,0-216-96.897-216-216S136.897,40,256,40
			s216,96.897,216,216S375.103,472,256,472z"/>
	</g>
</g>
<g>
	<g>
		<polygon points="276,236 276,76 236,76 236,276 388,276 388,236 		"/>
	</g>
</g>
<g>
</g>
<g>
</g>
<g>
</g>
<g>
</g>
<g>
</g>
<g>
</g>
<g>
</g>
<g>
</g>
<g>
</g>
<g>
</g>
<g>
</g>
<g>
</g>
<g>
</g>
<g>
</g>
<g>
</g>
</symbol><symbol id="icon-director" viewBox="0 0 15 19">
<path d="M14.3807 10.6765L14.2916 10.4742C14.2017 10.267 14.0379 10.1007 13.8321 10.0077C13.6263 9.91467 13.3932 9.90158 13.1783 9.97099C13.1513 9.9796 13.1206 9.98895 13.0919 9.99801V7.89198H13.7391C13.808 7.89198 13.8741 7.86461 13.9228 7.81589C13.9715 7.76718 13.9989 7.70111 13.9989 7.63221V1.62049C13.9989 1.5516 13.9715 1.48553 13.9228 1.43681C13.8741 1.38809 13.808 1.36073 13.7391 1.36073H13.0919V0.259766C13.0919 0.190884 13.0645 0.124834 13.0158 0.076127C12.9671 0.02742 12.9011 3.93275e-05 12.8322 0H11.3217C11.2528 0 11.1867 0.0273681 11.138 0.0760836C11.0893 0.124799 11.0619 0.190872 11.0619 0.259766V1.36073H3.61539V0.259766C3.61535 0.190884 3.58797 0.124834 3.53927 0.076127C3.49056 0.02742 3.42451 3.93275e-05 3.35563 0H1.84439C1.7755 3.93275e-05 1.70945 0.02742 1.66075 0.076127C1.61204 0.124834 1.58466 0.190884 1.58462 0.259766V1.36073H1.3826C1.19567 1.36096 1.01647 1.43532 0.884292 1.5675C0.752115 1.69968 0.677755 1.87888 0.677519 2.0658V7.1869C0.677755 7.37383 0.752115 7.55303 0.884292 7.6852C1.01647 7.81738 1.19567 7.89174 1.3826 7.89198H1.58462V9.99801C1.55597 9.9891 1.52525 9.97975 1.49823 9.97099C1.28331 9.90158 1.05025 9.91467 0.844451 10.0077C0.63865 10.1007 0.474846 10.267 0.384949 10.4742L0.295886 10.6764C0.24464 10.7929 0.218365 10.9189 0.218754 11.0463C0.219143 11.1736 0.246187 11.2994 0.298145 11.4157C0.350103 11.5319 0.425824 11.636 0.520435 11.7212C0.615046 11.8064 0.726451 11.8709 0.84748 11.9105C0.958956 11.9468 1.08676 11.9862 1.22451 12.0267L5.47888 14.8435L2.04433 17.1174C1.81969 17.2687 1.66394 17.5026 1.61102 17.7682C1.55811 18.0338 1.61232 18.3096 1.76185 18.5354C1.91137 18.7613 2.14409 18.9188 2.40928 18.9738C2.67448 19.0288 2.95066 18.9768 3.17765 18.829L7.33865 16.0743L11.4998 18.8294C11.7268 18.9797 12.0043 19.0336 12.271 18.9793C12.5378 18.925 12.7721 18.767 12.9223 18.5399C13.0726 18.3129 13.1265 18.0355 13.0722 17.7687C13.0179 17.5019 12.8599 17.2676 12.6328 17.1174L9.19768 14.8435L13.4518 12.0269C13.5897 11.9862 13.7175 11.9468 13.8289 11.9105C13.95 11.8709 14.0614 11.8065 14.156 11.7213C14.2506 11.6361 14.3264 11.532 14.3784 11.4158C14.4303 11.2996 14.4574 11.1737 14.4578 11.0464C14.4582 10.9191 14.4319 10.7931 14.3807 10.6765ZM12.5637 17.8726C12.5836 17.9708 12.574 18.0727 12.536 18.1655C12.498 18.2582 12.4334 18.3376 12.3503 18.3937C12.2673 18.4497 12.1694 18.4799 12.0692 18.4803C11.969 18.4808 11.8709 18.4516 11.7873 18.3963L7.8092 15.7629L8.72713 15.155L12.346 17.551C12.4018 17.5875 12.4498 17.6347 12.4872 17.6899C12.5245 17.7451 12.5505 17.8073 12.5637 17.8726ZM12.574 10.1488C12.2598 10.233 11.9277 10.3106 11.5822 10.3805V7.89198H12.574V10.1488ZM11.5814 0.519531H12.5733V1.36073H11.5814V0.519531ZM2.10415 0.519531H3.09586V1.36073H2.10415V0.519531ZM1.19705 7.1869V2.0658C1.19713 2.01662 1.2167 1.96947 1.25148 1.93469C1.28626 1.89991 1.33341 1.88034 1.3826 1.88026H13.4803V7.37245H1.3826C1.33341 7.37237 1.28626 7.35279 1.25148 7.31801C1.2167 7.28323 1.19713 7.23608 1.19705 7.1869ZM3.09586 7.89198V10.3805C2.75015 10.3106 2.41825 10.233 2.10415 10.1488V7.89198H3.09586ZM3.61539 7.89198H11.0619V10.4788C9.83189 10.6876 8.58625 10.7905 7.33865 10.7865C6.09105 10.7905 4.84541 10.6876 3.61539 10.4788V7.89198ZM2.71868 12.3923C3.4939 12.5463 4.27678 12.6587 5.064 12.7291L6.8687 13.924L5.95061 14.5319L2.71868 12.3923ZM7.33865 13.6126L6.11211 12.8005C6.50414 12.8191 6.91219 12.8302 7.33865 12.8302C7.76511 12.8302 8.17332 12.8192 8.56519 12.8005L7.33865 13.6126ZM11.9586 12.3923L2.89087 18.3963C2.77867 18.4705 2.64159 18.4971 2.50978 18.4703C2.37797 18.4434 2.26223 18.3653 2.18802 18.2531C2.11381 18.1409 2.08721 18.0038 2.11407 17.872C2.14094 17.7402 2.21906 17.6244 2.33126 17.5502L9.6139 12.7291C10.4009 12.6582 11.1835 12.5458 11.9586 12.3923ZM13.9031 11.2048C13.8811 11.2548 13.8488 11.2996 13.8082 11.3362C13.7677 11.3729 13.7199 11.4005 13.6679 11.4174C11.8028 12.02 9.52306 12.3117 7.33865 12.3105C5.05791 12.2819 3.2587 12.1037 1.00928 11.4165C0.958086 11.3981 0.911133 11.3696 0.871244 11.3327C0.831355 11.2957 0.799354 11.2511 0.777167 11.2014C0.754979 11.1518 0.743064 11.0982 0.742138 11.0438C0.741212 10.9894 0.751293 10.9354 0.771777 10.8851L0.860839 10.6829C0.891137 10.6129 0.94119 10.5533 1.00486 10.5114C1.06854 10.4694 1.14307 10.447 1.21932 10.4467C3.00561 10.9367 4.50246 11.2827 7.33865 11.306C10.127 11.2691 11.5851 10.9807 13.3383 10.4656C13.4308 10.4359 13.5309 10.4417 13.6193 10.4819C13.7077 10.522 13.778 10.5936 13.8165 10.6828L13.9055 10.8851C13.9278 10.9354 13.9392 10.9899 13.9389 11.045C13.9386 11.1 13.9266 11.1544 13.9037 11.2045L13.9031 11.2048Z"/>
<path d="M5.87047 5.30515L5.83663 6.5308C5.86216 6.62699 5.88339 6.83747 6.18338 6.78314L7.33867 6.37197L8.49395 6.7827C8.53372 6.79479 8.57574 6.79748 8.61672 6.79057C8.6577 6.78366 8.69652 6.76733 8.73012 6.74287C8.76372 6.71841 8.79118 6.68648 8.81034 6.64961C8.82951 6.61273 8.83985 6.57191 8.84056 6.53035L8.80701 5.3047L9.55454 4.33303C9.5783 4.29897 9.59385 4.25987 9.59995 4.21879C9.60606 4.17772 9.60256 4.13578 9.58973 4.09629C9.5769 4.05679 9.55509 4.02081 9.52601 3.99116C9.49693 3.96151 9.46137 3.93901 9.42213 3.92542L8.24606 3.57986L7.55286 2.5684C7.52772 2.53545 7.49531 2.50874 7.45816 2.49035C7.42101 2.47197 7.38012 2.4624 7.33867 2.4624C7.29722 2.4624 7.25632 2.47197 7.21917 2.49035C7.18202 2.50874 7.14961 2.53545 7.12447 2.5684L6.43127 3.57986L5.2552 3.92646C5.21596 3.94005 5.1804 3.96255 5.15133 3.9922C5.12225 4.02185 5.10044 4.05783 5.08761 4.09733C5.07478 4.13682 5.07128 4.17876 5.07738 4.21983C5.08349 4.26091 5.09903 4.30001 5.12279 4.33407L5.87047 5.30515ZM6.66684 4.05144C6.72408 4.03449 6.77377 3.99839 6.80756 3.94917L7.33867 3.17418L7.86978 3.94917C7.90357 3.99839 7.95325 4.03449 8.01049 4.05144L8.91166 4.31715L8.33884 5.06171C8.30231 5.109 8.28332 5.16749 8.2851 5.22722L8.31093 6.16623L7.42565 5.85095C7.36939 5.83096 7.30795 5.83096 7.25168 5.85095L6.36655 6.16579L6.39238 5.22677C6.39402 5.167 6.37499 5.10849 6.3385 5.06112L5.76523 4.31715L6.66684 4.05144Z"/>
</symbol><symbol id="icon-email" viewBox="0 0 16 16">
<path d="M10.6064 8.08183L16.0004 11.4918V4.52783L10.6064 8.08183Z"/>
<path d="M0 4.52783V11.4918L5.394 8.08183L0 4.52783Z"/>
<path d="M15.0003 2.5H1.00027C0.501273 2.5 0.105273 2.872 0.0302734 3.351L8.00027 8.602L15.9703 3.351C15.8953 2.872 15.4993 2.5 15.0003 2.5Z"/>
<path d="M9.69023 8.68606L8.27523 9.61806C8.19123 9.67306 8.09623 9.70006 8.00023 9.70006C7.90423 9.70006 7.80923 9.67306 7.72523 9.61806L6.31023 8.68506L0.0322266 12.6561C0.109227 13.1311 0.503227 13.5001 1.00023 13.5001H15.0002C15.4972 13.5001 15.8912 13.1311 15.9682 12.6561L9.69023 8.68606Z"/>
</symbol><symbol id="icon-genre" viewBox="0 0 23 23">
<circle cx="11.5" cy="11.5" r="10.5" stroke-width="2"/>
<circle cx="11.5" cy="11.5" r="6.5" stroke-width="2"/>

</symbol><symbol id="icon-gradRub" viewBox="0 0 22 30">
<path d="M6.5 2H12C16.4183 2 20 5.58172 20 10V10C20 14.4183 16.4183 18 12 18H6.5" stroke-width="3" stroke-linecap="round"/>
<path d="M5 2.80237C5 2.09295 5.57509 1.51786 6.28451 1.51786H6.33053C6.44273 1.51786 6.55414 1.49917 6.66019 1.46255C7.31623 1.23606 8 1.72338 8 2.41741V28.5C8 29.3284 7.32843 30 6.5 30C5.67157 30 5 29.3284 5 28.5V2.80237Z"/>
<path d="M1.5 19.5C0.671573 19.5 0 18.8284 0 18C0 17.1716 0.671573 16.5 1.5 16.5H9.5C10.3284 16.5 11 17.1716 11 18C11 18.8284 10.3284 19.5 9.5 19.5H1.5Z"/>
<path d="M1.5 25C0.671573 25 0 24.3284 0 23.5C0 22.6716 0.671573 22 1.5 22H10.5C11.3284 22 12 22.6716 12 23.5C12 24.3284 11.3284 25 10.5 25H1.5Z"/>

</symbol><symbol id="icon-heart" viewBox="0 0 515.99347 480.73038">

<g transform="translate(1.9963 -15.98)">
<use width="100%" height="100%" xlink:href="#b"/>
<use width="100%" height="100%" xlink:href="#a"/>
</g>
</symbol><symbol id="icon-help" viewBox="0 0 30 25">
<path d="M10.1112 20.444C9.81493 22.0736 7.889 23.9996 4.77789 23.9996C-0.629011 23.9996 7.44463 23.5551 5.22241 17.7773"/>
<path d="M28.7223 10.6667C28.7223 13.4195 27.2357 15.9499 24.7567 17.8091C22.2775 19.6685 18.8297 20.8333 15.0001 20.8333C13.4678 20.8333 11.9955 20.6468 10.6213 20.3033C9.50784 20.025 8.45949 19.6438 7.49627 19.1758C6.57373 18.7276 5.73017 18.2002 4.98247 17.608C2.66032 15.769 1.27783 13.3219 1.27783 10.6667C1.27783 7.91381 2.76442 5.38345 5.24342 3.52419C7.72258 1.66483 11.1704 0.5 15.0001 0.5C18.8297 0.5 22.2775 1.66483 24.7567 3.52419C27.2357 5.38345 28.7223 7.91381 28.7223 10.6667Z"/>
<circle cx="10.5556" cy="10.6662" r="0.888889"/>
<circle cx="15.0001" cy="10.6662" r="0.888889"/>
<circle cx="19.4446" cy="10.6662" r="0.888889"/>

</symbol><symbol id="icon-line" viewBox="0 0 36 25">
<rect width="36" height="3"/>
<rect y="11" width="36" height="3"/>
<rect y="22" width="36" height="3"/>
</symbol><symbol id="icon-location" viewBox="0 0 512 512">
<g>
	<g>
		<path d="M256,0C156.748,0,76,80.748,76,180c0,33.534,9.289,66.26,26.869,94.652l142.885,230.257
			c2.737,4.411,7.559,7.091,12.745,7.091c0.04,0,0.079,0,0.119,0c5.231-0.041,10.063-2.804,12.75-7.292L410.611,272.22
			C427.221,244.428,436,212.539,436,180C436,80.748,355.252,0,256,0z M384.866,256.818L258.272,468.186l-129.905-209.34
			C113.734,235.214,105.8,207.95,105.8,180c0-82.71,67.49-150.2,150.2-150.2S406.1,97.29,406.1,180
			C406.1,207.121,398.689,233.688,384.866,256.818z"/>
	</g>
</g>
<g>
	<g>
		<path d="M256,90c-49.626,0-90,40.374-90,90c0,49.309,39.717,90,90,90c50.903,0,90-41.233,90-90C346,130.374,305.626,90,256,90z
			 M256,240.2c-33.257,0-60.2-27.033-60.2-60.2c0-33.084,27.116-60.2,60.2-60.2s60.1,27.116,60.1,60.2
			C316.1,212.683,289.784,240.2,256,240.2z"/>
	</g>
</g>
<g>
</g>
<g>
</g>
<g>
</g>
<g>
</g>
<g>
</g>
<g>
</g>
<g>
</g>
<g>
</g>
<g>
</g>
<g>
</g>
<g>
</g>
<g>
</g>
<g>
</g>
<g>
</g>
<g>
</g>
</symbol><symbol id="icon-map" viewBox="0 0 19 20">
<g clip-path="url(#clip0)">
<path d="M9.56194 4.19922C8.22291 4.19922 7.13303 5.29832 7.13303 6.64867C7.13303 7.99902 8.22291 9.09812 9.56194 9.09812C10.901 9.09812 11.9909 7.99902 11.9909 6.64867C11.9909 5.29832 10.901 4.19922 9.56194 4.19922ZM9.56194 8.39828C8.60529 8.39828 7.827 7.6134 7.827 6.64867C7.827 5.68394 8.60529 4.89906 9.56194 4.89906C10.5186 4.89906 11.2969 5.68394 11.2969 6.64867C11.2969 7.6134 10.5186 8.39828 9.56194 8.39828Z"/>
<path d="M14.2057 1.96551C12.9489 0.698093 11.2778 0 9.50053 0C7.72291 0 6.05217 0.698093 4.79538 1.96551C2.46952 4.31068 2.18048 8.72319 4.16941 11.3966L9.50053 19.1606L14.8237 11.4074C16.8206 8.72319 16.5315 4.31068 14.2057 1.96551ZM14.2609 10.9984L9.50053 17.931L4.73257 10.9875C2.92858 8.56188 3.18709 4.57697 5.28636 2.4603C6.41199 1.32515 7.90855 0.699843 9.50053 0.699843C11.0925 0.699843 12.5891 1.32515 13.715 2.4603C15.8143 4.57697 16.0728 8.56188 14.2609 10.9984Z"/>
</g>

</symbol><symbol id="icon-mapViolet" viewBox="0 0 23 23">
<circle cx="11.5" cy="11.5" r="10.5" stroke-width="2"/>
<line x1="11.5" y1="14" x2="11.5" y2="6"/>
<line x1="17" y1="12.5" x2="11" y2="12.5"/>
<linearGradient id="paint0_linear" x1="2.5" y1="2.5" x2="17.5" y2="22" gradientUnits="userSpaceOnUse">
<stop stop-color="#DF0E77"/>
<stop offset="1" stop-color="#390796"/>
</linearGradient>
</symbol><symbol id="icon-pencil" viewBox="0 0 12 12">
<path d="M11.7198 1.43165L11.4873 1.19916C11.4187 1.13051 11.3074 1.13054 11.2388 1.19916C11.1701 1.2678 11.1701 1.37908 11.2388 1.4477L11.4713 1.6802C11.7071 1.91604 11.7071 2.29977 11.4713 2.53561L11.1508 2.85606L9.14388 0.849109L9.46433 0.52866C9.70017 0.292817 10.0839 0.292817 10.3197 0.52866L10.6599 0.868843C10.7285 0.937465 10.8398 0.937465 10.9085 0.868843C10.9771 0.80022 10.9771 0.68892 10.9085 0.620297L10.5683 0.280115C10.3877 0.0994885 10.1475 0 9.89203 0C9.63657 0 9.39639 0.0994885 9.21576 0.280115L2.17191 7.32397C2.10326 7.39259 2.10326 7.50389 2.17191 7.57252C2.24053 7.64114 2.35183 7.64114 2.42045 7.57252L8.12071 1.87226L8.99991 2.75146L1.77084 9.98044L1.1965 9.72238C1.17571 9.71305 1.15914 9.69646 1.14981 9.67572L0.891704 9.10133L1.84349 8.14955C1.91213 8.08093 1.91213 7.96963 1.84349 7.901C1.77487 7.83238 1.66357 7.83238 1.59494 7.901C1.59494 7.901 0.555646 8.94072 0.554638 8.94178C0.509288 8.98935 0.504109 9.05573 0.492227 9.11781C0.482383 9.16918 0.00840083 11.6424 0.00514314 11.6594C-0.0127624 11.7529 0.0166974 11.8488 0.0839605 11.9161C0.138263 11.9704 0.211245 12 0.286523 12C0.304476 12 0.322592 11.9984 0.340592 11.9949C0.340592 11.9949 2.96934 11.4911 2.97067 11.4908C3.00046 11.4848 3.03398 11.4682 3.05704 11.4466C3.05851 11.4453 11.7199 2.7842 11.7199 2.7842C12.0927 2.4113 12.0927 1.80455 11.7198 1.43165ZM0.499937 10.945L1.05501 11.5L1.05241 11.5005L0.368317 11.6316L0.499937 10.945ZM1.47218 11.4201L0.57988 10.5278L0.749537 9.64256L0.829152 9.81974C0.873775 9.91906 0.953038 9.99832 1.05239 10.043L1.67643 10.3234L1.9569 10.9475C2.00152 11.0468 2.08081 11.1261 2.18011 11.1707L2.35743 11.2504L1.47218 11.4201ZM2.89865 11.1083L2.32422 10.8501C2.30346 10.8408 2.28686 10.8242 2.27754 10.8034L2.0194 10.229L9.2485 3.00001L10.1277 3.87921L2.89865 11.1083ZM10.3762 3.63069L8.36928 1.62374L8.89534 1.09768L10.9023 3.10463L10.3762 3.63069Z"/>
</symbol><symbol id="icon-phone" viewBox="0 0 19 19">
<path d="M14.3784 18.4866H4.62161C4.28126 18.4862 3.95496 18.3509 3.71429 18.1102C3.47362 17.8695 3.33824 17.5432 3.33783 17.2029V5.50502H3.85134V17.2029C3.85134 17.4071 3.9325 17.6031 4.07695 17.7475C4.2214 17.892 4.41733 17.9731 4.62161 17.9731H14.3784C14.5827 17.9731 14.7786 17.892 14.923 17.7475C15.0675 17.6031 15.1486 17.4071 15.1486 17.2029V1.79746C15.1486 1.59317 15.0675 1.39725 14.923 1.25279C14.7786 1.10834 14.5827 1.02719 14.3784 1.02719H4.62161C4.41733 1.02719 4.2214 1.10834 4.07695 1.25279C3.9325 1.39725 3.85134 1.59317 3.85134 1.79746V4.478H3.33783V1.79746C3.33824 1.4571 3.47362 1.1308 3.71429 0.890134C3.95496 0.649466 4.28126 0.51408 4.62161 0.513672H14.3784C14.7187 0.51408 15.045 0.649466 15.2857 0.890134C15.5264 1.1308 15.6617 1.4571 15.6622 1.79746V17.2029C15.6617 17.5432 15.5264 17.8695 15.2857 18.1102C15.045 18.3509 14.7187 18.4862 14.3784 18.4866Z"/>
<path d="M3.5946 15.9189H12.9868V16.4325H3.5946V15.9189Z"/>
<path d="M14.0138 15.9189H15.4054V16.4325H14.0138V15.9189Z"/>
<path d="M8.47296 16.9458H10.527V17.4593H8.47296V16.9458Z"/>
<path d="M3.5946 2.56738H15.4054V3.0809H3.5946V2.56738Z"/>
<path d="M7.95947 1.54053H11.0406V2.05404H7.95947V1.54053Z"/>
</symbol><symbol id="icon-place" viewBox="0 0 512.064 512.064">
<g>
	<g>
		<path d="M482.595,1.647l-469.333,192c-19.739,8.075-16.722,36.919,4.261,40.734l220.136,40.025l40.025,220.136
			c3.815,20.983,32.659,24,40.734,4.261l192-469.333C517.58,11.962,500.103-5.516,482.595,1.647z M306.592,415.024l-29.597-162.782
			c-1.589-8.742-8.431-15.584-17.173-17.173L97.04,205.472L451.666,60.398L306.592,415.024z"/>
	</g>
</g>
<g>
</g>
<g>
</g>
<g>
</g>
<g>
</g>
<g>
</g>
<g>
</g>
<g>
</g>
<g>
</g>
<g>
</g>
<g>
</g>
<g>
</g>
<g>
</g>
<g>
</g>
<g>
</g>
<g>
</g>
</symbol><symbol id="icon-point" viewBox="0 0 33 34">
<path d="M2.06365 19.7002L22.3564 7.80735C22.7227 7.59267 23.173 7.90341 23.1023 8.32205L19.1914 31.4615C19.1105 31.9398 18.4643 32.0344 18.2499 31.5992L13.6083 22.1823C13.5333 22.0302 13.3862 21.9264 13.2177 21.9068L2.25853 20.6282C1.78195 20.5726 1.64969 19.9428 2.06365 19.7002Z" stroke-width="2"/>

</symbol><symbol id="icon-rub" viewBox="0 0 440 440">
<g>
	<path d="M232.522,242.428c63.913,0,115.91-54.382,115.91-121.227C348.432,54.37,296.435,0,232.522,0H120.568v282.428h-29v30h29V440
		h30V312.428h101.955v-30H150.568v-40H232.522z M150.568,30h81.955c47.371,0,85.91,40.912,85.91,91.201
		c0,50.303-38.539,91.227-85.91,91.227h-81.955V30z"/>
</g>
<g>
</g>
<g>
</g>
<g>
</g>
<g>
</g>
<g>
</g>
<g>
</g>
<g>
</g>
<g>
</g>
<g>
</g>
<g>
</g>
<g>
</g>
<g>
</g>
<g>
</g>
<g>
</g>
<g>
</g>
</symbol><symbol id="icon-tel" viewBox="0 0 13 13">
<path d="M12.7472 10.3371L11.306 9.37622L10.0248 8.52226C9.7776 8.35776 9.44532 8.41169 9.26278 8.64599L8.47002 9.66513C8.29973 9.88628 7.9934 9.94984 7.74919 9.81463C7.21127 9.51541 6.57517 9.23368 5.17164 7.82835C3.76812 6.42302 3.48458 5.78872 3.18536 5.2508C3.05015 5.00659 3.1137 4.70026 3.33485 4.52999L4.354 3.73723C4.58827 3.55472 4.64223 3.22244 4.47772 2.97516L3.65 1.73345L2.6629 0.252787C2.49489 0.000762236 2.15857 -0.074901 1.89883 0.0808687L0.760428 0.763818C0.452773 0.945079 0.226622 1.23778 0.128818 1.58123C-0.182493 2.71626 -0.245257 5.22007 3.76743 9.23276C7.78012 13.2454 10.2837 13.1825 11.4187 12.8711C11.7622 12.7734 12.0549 12.5472 12.2361 12.2395L12.9191 11.1012C13.0749 10.8414 12.9992 10.5051 12.7472 10.3371Z"/>
<path d="M7.396 2.01711C9.49938 2.01945 11.204 3.724 11.2063 5.82741C11.2063 5.95119 11.3066 6.05156 11.4304 6.05156C11.5542 6.05156 11.6546 5.95122 11.6546 5.82741C11.652 3.47655 9.74689 1.57144 7.39602 1.56885C7.27224 1.56885 7.17188 1.66919 7.17188 1.79299C7.17185 1.91675 7.27219 2.01711 7.396 2.01711Z"/>
<path d="M7.39602 3.36187C8.75702 3.36347 9.8599 4.46637 9.8615 5.82734C9.8615 5.95112 9.96184 6.05149 10.0856 6.05149C10.2094 6.05149 10.3098 5.95115 10.3098 5.82734C10.3079 4.21889 9.0045 2.91543 7.39602 2.91357C7.27224 2.91357 7.17188 3.01392 7.17188 3.13772C7.17188 3.26152 7.27222 3.36187 7.39602 3.36187Z"/>
<path d="M7.396 4.70706C8.01463 4.70779 8.51594 5.2091 8.51667 5.82773C8.51667 5.95151 8.61702 6.05188 8.74082 6.05188C8.8646 6.05188 8.96496 5.95154 8.96496 5.82773C8.96397 4.96164 8.26211 4.25978 7.39602 4.25879C7.27224 4.25879 7.17188 4.35913 7.17188 4.48293C7.17185 4.60671 7.27219 4.70706 7.396 4.70706Z"/>
</symbol><symbol id="icon-ticket" viewBox="0 0 39 38">
<g clip-path="url(#clip0)">
<path d="M24.2064 17.0645L23.4158 16.5908L22.9421 17.3814L23.7327 17.8551L24.2064 17.0645Z"/>
<path d="M25.1538 15.4834L24.3632 15.0098L23.8895 15.8004L24.6801 16.274L25.1538 15.4834Z"/>
<path d="M23.2591 18.6455L22.4685 18.1719L21.9948 18.9625L22.7854 19.4362L23.2591 18.6455Z"/>
<path d="M22.3117 20.2266L21.5211 19.7529L21.0474 20.5435L21.8381 21.0172L22.3117 20.2266Z"/>
<path d="M21.3643 21.8077L20.5737 21.334L20.1001 22.1246L20.8907 22.5983L21.3643 21.8077Z"/>
<path d="M20.4171 23.3887L19.6265 22.915L19.1528 23.7056L19.9434 24.1793L20.4171 23.3887Z"/>
<path d="M19.4697 24.9707L18.6791 24.4971L18.2054 25.2877L18.996 25.7613L19.4697 24.9707Z"/>
<path d="M22.9404 14.6938L12.6625 8.53613L12.1888 9.32674L22.4667 15.4844L22.9404 14.6938Z"/>
<path d="M17.73 23.3911L7.45215 17.2334L6.97848 18.024L17.2564 24.1817L17.73 23.3911Z"/>
<path d="M31.2417 19.6677L26.1028 16.5889L25.6291 17.3795L30.7681 20.4583L31.2417 19.6677Z"/>
<path d="M26.0314 28.364L20.8925 25.2852L20.4188 26.0758L25.5577 29.1546L26.0314 28.364Z"/>
<path d="M32.4294 23.065C32.6477 23.1958 32.9307 23.1248 33.0615 22.9065L34.9562 19.7441C35.087 19.5258 35.016 19.2427 34.7977 19.1119L11.8702 5.37551C11.6519 5.24471 11.3688 5.31567 11.238 5.53398L9.34334 8.6964C9.21255 8.91471 9.2835 9.19775 9.50181 9.32854C11.03 10.2441 11.5267 12.2253 10.6111 13.7535C9.69548 15.2817 7.71436 15.7784 6.18612 14.8628C5.96781 14.732 5.68477 14.8029 5.55398 15.0213L3.6593 18.1837C3.52851 18.402 3.59946 18.685 3.81777 18.8158L26.7453 32.5522C26.9637 32.683 27.2467 32.6121 27.3775 32.3938L29.2722 29.2314C29.403 29.013 29.332 28.73 29.1137 28.5992C27.5855 27.6836 27.0888 25.7025 28.0044 24.1742C28.92 22.646 30.9011 22.1494 32.4294 23.065ZM26.9995 24.1106C26.1953 25.8726 26.7177 27.9566 28.258 29.1308L26.8237 31.5248L4.68674 18.262L6.12101 15.8681C8.20478 16.8191 10.665 15.9009 11.616 13.8171C12.4202 12.0551 11.8977 9.97116 10.3575 8.7969L11.7918 6.40295L33.9288 19.6657L32.4945 22.0597C30.4107 21.1086 27.9505 22.0269 26.9995 24.1106Z"/>
</g>

</symbol><symbol id="icon-tickets" viewBox="0 0 29 30">
<path d="M17.5835 3.00033L25.8989 18.0967C26.6983 19.548 26.1698 21.3725 24.7186 22.1719L12.7628 28.7573" stroke-linecap="round"/>
<path d="M2.84567 11.8496C2.58607 11.3783 2.59906 10.8104 2.88059 10.3603C3.46043 9.43343 4.37182 8.00461 5.24652 6.74917C5.68433 6.12077 6.10828 5.54257 6.47394 5.09458C6.65693 4.87038 6.82059 4.68465 6.96044 4.5437C7.10729 4.39568 7.20243 4.32332 7.24853 4.29792C7.29464 4.27253 7.40665 4.23079 7.61024 4.18577C7.80411 4.14291 8.04856 4.10385 8.33585 4.069C8.90992 3.99937 9.62519 3.95007 10.3903 3.91587C11.9189 3.84754 13.6136 3.84085 14.7069 3.84615C15.2378 3.84872 15.7248 4.14129 15.9844 4.61258L23.7085 18.6356C24.1082 19.3612 23.844 20.2735 23.1184 20.6732L12.6074 26.4628C11.8818 26.8625 10.9695 26.5983 10.5698 25.8727L2.84567 11.8496Z"/>
<circle cx="9.05566" cy="7.93262" r="1.5"/>

</symbol><symbol id="icon-tile" viewBox="0 0 22 25">
<rect width="4" height="3"/>
<rect x="9" width="4" height="3"/>
<rect x="18" width="4" height="3"/>
<rect y="11" width="4" height="3"/>
<rect x="9" y="11" width="4" height="3"/>
<rect x="18" y="11" width="4" height="3"/>
<rect y="22" width="4" height="3"/>
<rect x="9" y="22" width="4" height="3"/>
<rect x="18" y="22" width="4" height="3"/>
</symbol><symbol id="icon-wallet" viewBox="0 0 33 33">
<g clip-path="url(#clip0)">
<path d="M31.1438 16.2862V9.72793C31.1438 8.21158 29.9101 6.97793 28.3938 6.97793H27.4616L27.6682 6.26011C28.0047 5.0917 27.3313 3.8738 26.1627 3.53734L19.9222 1.7409C19.6303 1.65689 19.3256 1.82539 19.2416 2.1173C19.1575 2.40922 19.3261 2.71392 19.618 2.798L23.5412 3.92735C23.0559 4.8728 23.0381 6.00051 23.529 6.97793H12.0312V2.64668C12.0312 2.34294 11.785 2.09668 11.4812 2.09668C11.1775 2.09668 10.9313 2.34294 10.9313 2.64668V6.97793H9.075V2.64668C9.075 2.34294 8.82874 2.09668 8.525 2.09668C8.22126 2.09668 7.975 2.34294 7.975 2.64668V6.97793H5.56875V2.23418C5.56875 1.62767 6.06224 1.13418 6.66875 1.13418H15.95C16.5565 1.13418 17.05 1.62767 17.05 2.23418V5.25918C17.05 5.56292 17.2963 5.80918 17.6 5.80918C17.9037 5.80918 18.15 5.56292 18.15 5.25918V2.23418C18.15 1.02109 17.1631 0.0341797 15.95 0.0341797H6.66875C5.45566 0.0341797 4.46875 1.02109 4.46875 2.23418V6.97793H2.75C1.23365 6.97793 0 8.21158 0 9.72793V30.2154C0 31.7318 1.23365 32.9654 2.75 32.9654H28.3938C29.9101 32.9654 31.1438 31.7318 31.1438 30.2154V26.1936C31.1438 25.8898 30.8975 25.6436 30.5938 25.6436C30.29 25.6436 30.0438 25.8898 30.0438 26.1936V30.2154C30.0438 31.1252 29.3035 31.8654 28.3938 31.8654H2.75C1.84023 31.8654 1.1 31.1252 1.1 30.2154V9.72793C1.1 8.81816 1.84023 8.07793 2.75 8.07793H28.3938C29.3035 8.07793 30.0438 8.81816 30.0438 9.72793V16.2592H25.5063C24.2932 16.2592 23.3062 17.2461 23.3062 18.4592V21.4842C23.3062 22.6973 24.2932 23.6842 25.5063 23.6842H30.8014C32.0092 23.6842 33 22.7006 33 21.4842V18.4592C33 17.363 32.1941 16.4517 31.1438 16.2862ZM24.6283 4.24037L25.8585 4.5945C26.4428 4.76274 26.7793 5.37159 26.6112 5.95582L26.3169 6.97793H24.8468C24.1523 6.20545 24.0879 5.08208 24.6283 4.24037ZM31.9 21.4842C31.9 22.0907 31.4065 22.5842 30.8 22.5842H25.5063C24.8997 22.5842 24.4062 22.0907 24.4062 21.4842V18.4592C24.4062 17.8527 24.8997 17.3592 25.5063 17.3592H30.8C31.4065 17.3592 31.9 17.8527 31.9 18.4592V21.4842ZM27.5688 19.9717C27.5688 20.2754 27.3225 20.5217 27.0188 20.5217H26.1938C25.89 20.5217 25.6438 20.2754 25.6438 19.9717C25.6438 19.6679 25.89 19.4217 26.1938 19.4217H27.0188C27.3225 19.4217 27.5688 19.6679 27.5688 19.9717Z"/>
</g>

</symbol></svg>