<svg width="19" height="19" viewBox="0 0 19 19" fill="none" xmlns="http://www.w3.org/2000/svg">
<path d="M14.5104 9.3313H15.8358C16.1354 9.3313 16.3792 9.08753 16.3792 8.78791V7.46258C16.3792 7.16296 16.1354 6.91919 15.8358 6.91919H14.5104C14.2108 6.91919 13.967 7.16296 13.967 7.46258V8.78791C13.967 9.08753 14.2108 9.3313 14.5104 9.3313ZM14.5237 7.47583H15.8225V8.77466H14.5237V7.47583ZM14.5104 12.8567H15.8358C16.1354 12.8567 16.3792 12.6129 16.3792 12.3133V10.988C16.3792 10.6884 16.1354 10.4446 15.8358 10.4446H14.5104C14.2108 10.4446 13.967 10.6884 13.967 10.988V12.3133C13.967 12.6129 14.2108 12.8567 14.5104 12.8567ZM14.5237 11.0012H15.8225V12.3001H14.5237V11.0012ZM10.7284 9.3313H12.0537C12.3533 9.3313 12.5971 9.08753 12.5971 8.78791V7.46258C12.5971 7.16296 12.3533 6.91919 12.0537 6.91919H10.7284C10.4288 6.91919 10.185 7.16296 10.185 7.46258V8.78791C10.185 9.08753 10.4288 9.3313 10.7284 9.3313ZM10.7417 7.47583H12.0405V8.77466H10.7417V7.47583ZM4.48965 13.8047H3.16433C2.86471 13.8047 2.62093 14.0485 2.62093 14.3481V15.6734C2.62093 15.973 2.86471 16.2168 3.16433 16.2168H4.48965C4.78927 16.2168 5.03304 15.973 5.03304 15.6734V14.3481C5.03304 14.0485 4.78927 13.8047 4.48965 13.8047ZM4.4764 15.6602H3.17758V14.3613H4.4764V15.6602ZM4.48965 6.91919H3.16433C2.86471 6.91919 2.62093 7.16296 2.62093 7.46258V8.78791C2.62093 9.08753 2.86471 9.3313 3.16433 9.3313H4.48965C4.78927 9.3313 5.03304 9.08753 5.03304 8.78791V7.46258C5.03304 7.16293 4.78927 6.91919 4.48965 6.91919ZM4.4764 8.77466H3.17758V7.47583H4.4764V8.77466ZM10.7284 12.774H12.0537C12.3533 12.774 12.5971 12.5303 12.5971 12.2307V10.9053C12.5971 10.6057 12.3533 10.3619 12.0537 10.3619H10.7284C10.4288 10.3619 10.185 10.6057 10.185 10.9053V12.2307C10.185 12.5303 10.4288 12.774 10.7284 12.774ZM10.7417 10.9186H12.0405V12.2174H10.7417V10.9186ZM16.6556 1.27189H15.4656V0.846353C15.4656 0.379666 15.086 0 14.6193 0H14.4915C14.0248 0 13.6452 0.379666 13.6452 0.846353V1.27189H5.35493V0.846353C5.35493 0.379666 4.97526 0 4.50858 0H4.38077C3.91408 0 3.53442 0.379666 3.53442 0.846353V1.27189H2.34451C1.57616 1.27189 0.95105 1.89699 0.95105 2.66534V17.6084C0.95105 18.3757 1.5753 19 2.34265 19H16.6575C17.4249 19 18.0491 18.3757 18.0491 17.6084V2.66534C18.0491 1.89699 17.424 1.27189 16.6556 1.27189ZM14.2018 0.846353C14.2018 0.686598 14.3318 0.556641 14.4915 0.556641H14.6193C14.7791 0.556641 14.909 0.686598 14.909 0.846353V1.27189H14.2018V0.846353ZM4.0911 0.846353C4.0911 0.686598 4.22105 0.556641 4.38081 0.556641H4.50861C4.66837 0.556641 4.79833 0.686598 4.79833 0.846353V1.27189H4.09113V0.846353H4.0911ZM17.4924 17.6084C17.4924 18.0688 17.1179 18.4434 16.6575 18.4434H2.34261C1.8822 18.4434 1.50765 18.0688 1.50765 17.6084V17.6067C1.74085 17.7824 2.03071 17.8867 2.34451 17.8867H13.6288C14.001 17.8867 14.351 17.7418 14.6142 17.4786L17.4924 14.6003V17.6084ZM14.3302 16.9753C14.352 16.8853 14.3639 16.7914 14.3639 16.6947V14.8368C14.3639 14.4865 14.6489 14.2015 14.9992 14.2015H16.8571C16.9537 14.2015 17.0476 14.1896 17.1377 14.1678L14.3302 16.9753ZM17.4924 5.24927H5.63325C5.47954 5.24927 5.35493 5.37388 5.35493 5.52759C5.35493 5.6813 5.47954 5.80591 5.63325 5.80591H17.4924V13.0095C17.4924 13.3599 17.2074 13.6449 16.8571 13.6449H14.9992C14.342 13.6449 13.8072 14.1796 13.8072 14.8369V16.6947C13.8072 17.0451 13.5222 17.3301 13.1719 17.3301H2.34451C1.88309 17.3301 1.50769 16.9547 1.50769 16.4933V5.80591H4.51997C4.67368 5.80591 4.79829 5.6813 4.79829 5.52759C4.79829 5.37388 4.67368 5.24927 4.51997 5.24927H1.50765V2.66534C1.50765 2.20393 1.88305 1.82853 2.34447 1.82853H3.53442V2.64686C3.53442 3.11355 3.91408 3.49322 4.38077 3.49322C4.53448 3.49322 4.65909 3.3686 4.65909 3.2149C4.65909 3.06119 4.53448 2.93658 4.38077 2.93658C4.22102 2.93658 4.09106 2.80662 4.09106 2.64686V1.82853H13.6452V2.64686C13.6452 3.11355 14.0248 3.49322 14.4915 3.49322C14.6452 3.49322 14.7698 3.3686 14.7698 3.2149C14.7698 3.06119 14.6452 2.93658 14.4915 2.93658C14.3318 2.93658 14.2018 2.80662 14.2018 2.64686V1.82853H16.6556C17.117 1.82853 17.4924 2.20393 17.4924 2.66534V5.24927ZM4.48965 10.3619H3.16433C2.86471 10.3619 2.62093 10.6057 2.62093 10.9053V12.2307C2.62093 12.5303 2.86471 12.774 3.16433 12.774H4.48965C4.78927 12.774 5.03304 12.5303 5.03304 12.2307V10.9053C5.03304 10.6057 4.78927 10.3619 4.48965 10.3619ZM4.4764 12.2174H3.17758V10.9186H4.4764V12.2174ZM6.94637 9.3313H8.27169C8.57131 9.3313 8.81508 9.08753 8.81508 8.78791V7.46258C8.81508 7.16296 8.57131 6.91919 8.27169 6.91919H6.94637C6.64674 6.91919 6.40297 7.16296 6.40297 7.46258V8.78791C6.40297 9.08753 6.64674 9.3313 6.94637 9.3313ZM6.95961 7.47583H8.25844V8.77466H6.95961V7.47583ZM10.7413 15.6602C10.7344 15.5126 10.6126 15.3951 10.4633 15.3951C10.3096 15.3951 10.185 15.5197 10.185 15.6734C10.185 15.973 10.4287 16.2168 10.7284 16.2168H12.0537C12.3533 16.2168 12.5971 15.973 12.5971 15.6734V14.3481C12.5971 14.0485 12.3533 13.8047 12.0537 13.8047H10.7284C10.4287 13.8047 10.185 14.0485 10.185 14.3481V14.7303C10.185 14.884 10.3096 15.0086 10.4633 15.0086C10.617 15.0086 10.7416 14.884 10.7416 14.7303V14.3613H12.0404V15.6602H10.7413ZM6.94637 12.774H8.27169C8.57131 12.774 8.81508 12.5303 8.81508 12.2307V10.9053C8.81508 10.6057 8.57131 10.3619 8.27169 10.3619H6.94637C6.64674 10.3619 6.40297 10.6057 6.40297 10.9053V12.2307C6.40297 12.5303 6.64674 12.774 6.94637 12.774ZM6.95961 10.9186H8.25844V12.2174H6.95961V10.9186ZM6.94637 16.2168H8.27169C8.57131 16.2168 8.81508 15.973 8.81508 15.6734V14.3481C8.81508 14.0485 8.57131 13.8047 8.27169 13.8047H6.94637C6.64674 13.8047 6.40297 14.0485 6.40297 14.3481V15.6734C6.40297 15.973 6.64674 16.2168 6.94637 16.2168ZM6.95961 14.3613H8.25844V15.6602H6.95961V14.3613Z" fill="url(#paint0_linear)"/>
<defs>
<linearGradient id="paint0_linear" x1="9.50008" y1="0" x2="9.50008" y2="19" gradientUnits="userSpaceOnUse">
<stop stop-color="#DF0E77"/>
<stop offset="1" stop-color="#390796"/>
</linearGradient>
</defs>
</svg>
