<svg width="515.99" height="480.73" version="1.1" viewBox="0 0 515.99347 480.73038">
<defs>
<path class="heart" id="b" d="m372.59 17.99c-48.54 0-92.99 26.12-118 67.99-24.79-42.41-67.41-68-115.18-68-72.86 0-131.09 59.68-138.55 141.94-0.59 3.63-3.02 22.76 4.35 53.94 10.61 44.98 35.13 85.89 70.89 118.29 11.89 10.79 71.34 64.75 178.37 161.87 108.86-97.12 169.34-151.07 181.43-161.86 35.76-32.41 60.28-73.31 70.89-118.3 7.37-31.17 4.94-50.3 4.36-53.93-7.47-82.26-65.69-141.94-138.56-141.94z"/>
</defs>
<g transform="translate(1.9963 -15.98)">
<use width="100%" height="100%" xlink:href="#b"/>
<use width="100%" height="100%" xlink:href="#a"/>
</g>
</svg>