<svg width="13" height="13" viewBox="0 0 13 13" fill="none" xmlns="http://www.w3.org/2000/svg">
<path d="M12.7472 10.3371L11.306 9.37622L10.0248 8.52226C9.7776 8.35776 9.44532 8.41169 9.26278 8.64599L8.47002 9.66513C8.29973 9.88628 7.9934 9.94984 7.74919 9.81463C7.21127 9.51541 6.57517 9.23368 5.17164 7.82835C3.76812 6.42302 3.48458 5.78872 3.18536 5.2508C3.05015 5.00659 3.1137 4.70026 3.33485 4.52999L4.354 3.73723C4.58827 3.55472 4.64223 3.22244 4.47772 2.97516L3.65 1.73345L2.6629 0.252787C2.49489 0.000762236 2.15857 -0.074901 1.89883 0.0808687L0.760428 0.763818C0.452773 0.945079 0.226622 1.23778 0.128818 1.58123C-0.182493 2.71626 -0.245257 5.22007 3.76743 9.23276C7.78012 13.2454 10.2837 13.1825 11.4187 12.8711C11.7622 12.7734 12.0549 12.5472 12.2361 12.2395L12.9191 11.1012C13.0749 10.8414 12.9992 10.5051 12.7472 10.3371Z" fill="white"/>
<path d="M7.396 2.01711C9.49938 2.01945 11.204 3.724 11.2063 5.82741C11.2063 5.95119 11.3066 6.05156 11.4304 6.05156C11.5542 6.05156 11.6546 5.95122 11.6546 5.82741C11.652 3.47655 9.74689 1.57144 7.39602 1.56885C7.27224 1.56885 7.17188 1.66919 7.17188 1.79299C7.17185 1.91675 7.27219 2.01711 7.396 2.01711Z" fill="white"/>
<path d="M7.39602 3.36187C8.75702 3.36347 9.8599 4.46637 9.8615 5.82734C9.8615 5.95112 9.96184 6.05149 10.0856 6.05149C10.2094 6.05149 10.3098 5.95115 10.3098 5.82734C10.3079 4.21889 9.0045 2.91543 7.39602 2.91357C7.27224 2.91357 7.17188 3.01392 7.17188 3.13772C7.17188 3.26152 7.27222 3.36187 7.39602 3.36187Z" fill="white"/>
<path d="M7.396 4.70706C8.01463 4.70779 8.51594 5.2091 8.51667 5.82773C8.51667 5.95151 8.61702 6.05188 8.74082 6.05188C8.8646 6.05188 8.96496 5.95154 8.96496 5.82773C8.96397 4.96164 8.26211 4.25978 7.39602 4.25879C7.27224 4.25879 7.17188 4.35913 7.17188 4.48293C7.17185 4.60671 7.27219 4.70706 7.396 4.70706Z" fill="white"/>
</svg>
