<svg width="15" height="19" viewBox="0 0 15 19" fill="none" xmlns="http://www.w3.org/2000/svg">
<path d="M14.3807 10.6765L14.2916 10.4742C14.2017 10.267 14.0379 10.1007 13.8321 10.0077C13.6263 9.91467 13.3932 9.90158 13.1783 9.97099C13.1513 9.9796 13.1206 9.98895 13.0919 9.99801V7.89198H13.7391C13.808 7.89198 13.8741 7.86461 13.9228 7.81589C13.9715 7.76718 13.9989 7.70111 13.9989 7.63221V1.62049C13.9989 1.5516 13.9715 1.48553 13.9228 1.43681C13.8741 1.38809 13.808 1.36073 13.7391 1.36073H13.0919V0.259766C13.0919 0.190884 13.0645 0.124834 13.0158 0.076127C12.9671 0.02742 12.9011 3.93275e-05 12.8322 0H11.3217C11.2528 0 11.1867 0.0273681 11.138 0.0760836C11.0893 0.124799 11.0619 0.190872 11.0619 0.259766V1.36073H3.61539V0.259766C3.61535 0.190884 3.58797 0.124834 3.53927 0.076127C3.49056 0.02742 3.42451 3.93275e-05 3.35563 0H1.84439C1.7755 3.93275e-05 1.70945 0.02742 1.66075 0.076127C1.61204 0.124834 1.58466 0.190884 1.58462 0.259766V1.36073H1.3826C1.19567 1.36096 1.01647 1.43532 0.884292 1.5675C0.752115 1.69968 0.677755 1.87888 0.677519 2.0658V7.1869C0.677755 7.37383 0.752115 7.55303 0.884292 7.6852C1.01647 7.81738 1.19567 7.89174 1.3826 7.89198H1.58462V9.99801C1.55597 9.9891 1.52525 9.97975 1.49823 9.97099C1.28331 9.90158 1.05025 9.91467 0.844451 10.0077C0.63865 10.1007 0.474846 10.267 0.384949 10.4742L0.295886 10.6764C0.24464 10.7929 0.218365 10.9189 0.218754 11.0463C0.219143 11.1736 0.246187 11.2994 0.298145 11.4157C0.350103 11.5319 0.425824 11.636 0.520435 11.7212C0.615046 11.8064 0.726451 11.8709 0.84748 11.9105C0.958956 11.9468 1.08676 11.9862 1.22451 12.0267L5.47888 14.8435L2.04433 17.1174C1.81969 17.2687 1.66394 17.5026 1.61102 17.7682C1.55811 18.0338 1.61232 18.3096 1.76185 18.5354C1.91137 18.7613 2.14409 18.9188 2.40928 18.9738C2.67448 19.0288 2.95066 18.9768 3.17765 18.829L7.33865 16.0743L11.4998 18.8294C11.7268 18.9797 12.0043 19.0336 12.271 18.9793C12.5378 18.925 12.7721 18.767 12.9223 18.5399C13.0726 18.3129 13.1265 18.0355 13.0722 17.7687C13.0179 17.5019 12.8599 17.2676 12.6328 17.1174L9.19768 14.8435L13.4518 12.0269C13.5897 11.9862 13.7175 11.9468 13.8289 11.9105C13.95 11.8709 14.0614 11.8065 14.156 11.7213C14.2506 11.6361 14.3264 11.532 14.3784 11.4158C14.4303 11.2996 14.4574 11.1737 14.4578 11.0464C14.4582 10.9191 14.4319 10.7931 14.3807 10.6765ZM12.5637 17.8726C12.5836 17.9708 12.574 18.0727 12.536 18.1655C12.498 18.2582 12.4334 18.3376 12.3503 18.3937C12.2673 18.4497 12.1694 18.4799 12.0692 18.4803C11.969 18.4808 11.8709 18.4516 11.7873 18.3963L7.8092 15.7629L8.72713 15.155L12.346 17.551C12.4018 17.5875 12.4498 17.6347 12.4872 17.6899C12.5245 17.7451 12.5505 17.8073 12.5637 17.8726ZM12.574 10.1488C12.2598 10.233 11.9277 10.3106 11.5822 10.3805V7.89198H12.574V10.1488ZM11.5814 0.519531H12.5733V1.36073H11.5814V0.519531ZM2.10415 0.519531H3.09586V1.36073H2.10415V0.519531ZM1.19705 7.1869V2.0658C1.19713 2.01662 1.2167 1.96947 1.25148 1.93469C1.28626 1.89991 1.33341 1.88034 1.3826 1.88026H13.4803V7.37245H1.3826C1.33341 7.37237 1.28626 7.35279 1.25148 7.31801C1.2167 7.28323 1.19713 7.23608 1.19705 7.1869ZM3.09586 7.89198V10.3805C2.75015 10.3106 2.41825 10.233 2.10415 10.1488V7.89198H3.09586ZM3.61539 7.89198H11.0619V10.4788C9.83189 10.6876 8.58625 10.7905 7.33865 10.7865C6.09105 10.7905 4.84541 10.6876 3.61539 10.4788V7.89198ZM2.71868 12.3923C3.4939 12.5463 4.27678 12.6587 5.064 12.7291L6.8687 13.924L5.95061 14.5319L2.71868 12.3923ZM7.33865 13.6126L6.11211 12.8005C6.50414 12.8191 6.91219 12.8302 7.33865 12.8302C7.76511 12.8302 8.17332 12.8192 8.56519 12.8005L7.33865 13.6126ZM11.9586 12.3923L2.89087 18.3963C2.77867 18.4705 2.64159 18.4971 2.50978 18.4703C2.37797 18.4434 2.26223 18.3653 2.18802 18.2531C2.11381 18.1409 2.08721 18.0038 2.11407 17.872C2.14094 17.7402 2.21906 17.6244 2.33126 17.5502L9.6139 12.7291C10.4009 12.6582 11.1835 12.5458 11.9586 12.3923ZM13.9031 11.2048C13.8811 11.2548 13.8488 11.2996 13.8082 11.3362C13.7677 11.3729 13.7199 11.4005 13.6679 11.4174C11.8028 12.02 9.52306 12.3117 7.33865 12.3105C5.05791 12.2819 3.2587 12.1037 1.00928 11.4165C0.958086 11.3981 0.911133 11.3696 0.871244 11.3327C0.831355 11.2957 0.799354 11.2511 0.777167 11.2014C0.754979 11.1518 0.743064 11.0982 0.742138 11.0438C0.741212 10.9894 0.751293 10.9354 0.771777 10.8851L0.860839 10.6829C0.891137 10.6129 0.94119 10.5533 1.00486 10.5114C1.06854 10.4694 1.14307 10.447 1.21932 10.4467C3.00561 10.9367 4.50246 11.2827 7.33865 11.306C10.127 11.2691 11.5851 10.9807 13.3383 10.4656C13.4308 10.4359 13.5309 10.4417 13.6193 10.4819C13.7077 10.522 13.778 10.5936 13.8165 10.6828L13.9055 10.8851C13.9278 10.9354 13.9392 10.9899 13.9389 11.045C13.9386 11.1 13.9266 11.1544 13.9037 11.2045L13.9031 11.2048Z" fill="#D95C9B"/>
<path d="M5.87047 5.30515L5.83663 6.5308C5.86216 6.62699 5.88339 6.83747 6.18338 6.78314L7.33867 6.37197L8.49395 6.7827C8.53372 6.79479 8.57574 6.79748 8.61672 6.79057C8.6577 6.78366 8.69652 6.76733 8.73012 6.74287C8.76372 6.71841 8.79118 6.68648 8.81034 6.64961C8.82951 6.61273 8.83985 6.57191 8.84056 6.53035L8.80701 5.3047L9.55454 4.33303C9.5783 4.29897 9.59385 4.25987 9.59995 4.21879C9.60606 4.17772 9.60256 4.13578 9.58973 4.09629C9.5769 4.05679 9.55509 4.02081 9.52601 3.99116C9.49693 3.96151 9.46137 3.93901 9.42213 3.92542L8.24606 3.57986L7.55286 2.5684C7.52772 2.53545 7.49531 2.50874 7.45816 2.49035C7.42101 2.47197 7.38012 2.4624 7.33867 2.4624C7.29722 2.4624 7.25632 2.47197 7.21917 2.49035C7.18202 2.50874 7.14961 2.53545 7.12447 2.5684L6.43127 3.57986L5.2552 3.92646C5.21596 3.94005 5.1804 3.96255 5.15133 3.9922C5.12225 4.02185 5.10044 4.05783 5.08761 4.09733C5.07478 4.13682 5.07128 4.17876 5.07738 4.21983C5.08349 4.26091 5.09903 4.30001 5.12279 4.33407L5.87047 5.30515ZM6.66684 4.05144C6.72408 4.03449 6.77377 3.99839 6.80756 3.94917L7.33867 3.17418L7.86978 3.94917C7.90357 3.99839 7.95325 4.03449 8.01049 4.05144L8.91166 4.31715L8.33884 5.06171C8.30231 5.109 8.28332 5.16749 8.2851 5.22722L8.31093 6.16623L7.42565 5.85095C7.36939 5.83096 7.30795 5.83096 7.25168 5.85095L6.36655 6.16579L6.39238 5.22677C6.39402 5.167 6.37499 5.10849 6.3385 5.06112L5.76523 4.31715L6.66684 4.05144Z" fill="#D95C9B"/>
</svg>
