<svg width="25" height="25" viewBox="0 0 25 25" fill="none" xmlns="http://www.w3.org/2000/svg">
<path d="M12.5004 9.11768e-07C9.74526 -0.00105123 7.06697 0.908518 4.88225 2.58721C2.69752 4.26589 1.12886 6.61958 0.420296 9.28208C-0.288266 11.9446 -0.0969968 14.7666 0.964348 17.3092C2.02569 19.8517 3.8976 21.9722 6.28886 23.3408C6.29636 23.3443 6.30236 23.3498 6.30986 23.3528C8.19449 24.4321 10.3286 25 12.5004 25C14.6723 25 16.8064 24.4321 18.691 23.3528C18.6985 23.3493 18.7045 23.3438 18.712 23.3403C21.103 21.9716 22.9747 19.8511 24.0359 17.3087C25.097 14.7662 25.2882 11.9444 24.5797 9.28202C23.8712 6.61967 22.3026 4.26611 20.1181 2.58745C17.9335 0.908792 15.2555 -0.000858447 12.5004 9.11768e-07ZM4.00033 12.5001C3.99993 11.1171 4.33701 9.75485 4.98232 8.53159C5.62764 7.30833 6.5617 6.26101 7.70346 5.4805C8.84521 4.69999 10.1602 4.20987 11.5343 4.05266C12.9083 3.89546 14.3 4.07591 15.5886 4.57838C16.8771 5.08084 18.0236 5.89013 18.9285 6.93603C19.8334 7.98193 20.4695 9.23285 20.7815 10.5802C21.0934 11.9276 21.0719 13.3308 20.7188 14.668C20.3657 16.0052 19.6916 17.236 18.755 18.2537C18.4738 17.2546 17.958 16.3371 17.2506 15.5776C16.5432 14.8181 15.6646 14.2386 14.688 13.8872C15.4848 13.4088 16.1028 12.6824 16.4475 11.8193C16.7921 10.9562 16.8443 10.0039 16.5961 9.10832C16.3479 8.2127 15.813 7.42312 15.0733 6.86051C14.3336 6.29789 13.4298 5.99326 12.5004 5.99326C11.5711 5.99326 10.6673 6.29789 9.92758 6.86051C9.18785 7.42312 8.65293 8.2127 8.40473 9.10832C8.15654 10.0039 8.20877 10.9562 8.5534 11.8193C8.89804 12.6824 9.51609 13.4088 10.3129 13.8872C9.33629 14.2386 8.45772 14.8181 7.75031 15.5776C7.0429 16.3371 6.52711 17.2546 6.24586 18.2537C4.80283 16.685 4.00144 14.6316 4.00033 12.5001ZM12.5004 13.5002C11.8576 13.5002 11.2293 13.3095 10.6948 12.9524C10.1603 12.5953 9.74378 12.0877 9.49779 11.4938C9.2518 10.9 9.18744 10.2465 9.31284 9.61606C9.43825 8.98562 9.74778 8.40652 10.2023 7.95199C10.6568 7.49747 11.2359 7.18793 11.8664 7.06253C12.4968 6.93712 13.1503 7.00149 13.7442 7.24747C14.338 7.49346 14.8456 7.91003 15.2027 8.44449C15.5599 8.97896 15.7505 9.60732 15.7505 10.2501C15.7494 11.1118 15.4067 11.9378 14.7974 12.5471C14.1881 13.1563 13.3621 13.4991 12.5004 13.5002ZM7.00037 22.5972V20.0002C7.00037 18.5415 7.57984 17.1426 8.6113 16.1111C9.64276 15.0796 11.0417 14.5002 12.5004 14.5002C13.9591 14.5002 15.3581 15.0796 16.3896 16.1111C17.421 17.1426 18.0005 18.5415 18.0005 20.0002V22.5972C16.3135 23.5179 14.4223 24.0003 12.5004 24.0003C10.5786 24.0003 8.68741 23.5179 7.00037 22.5972ZM19.0005 21.9807V20.0002C19.0005 19.8112 18.988 19.6257 18.972 19.4412C20.3689 18.1414 21.342 16.4511 21.7646 14.5904C22.1872 12.7298 22.0397 10.7849 21.3414 9.00927C20.643 7.23359 19.4262 5.70935 17.8493 4.63506C16.2724 3.56076 14.4085 2.9862 12.5004 2.9862C10.5924 2.9862 8.72851 3.56076 7.15161 4.63506C5.57471 5.70935 4.35784 7.23359 3.65948 9.00927C2.96113 10.7849 2.81365 12.7298 3.23626 14.5904C3.65887 16.4511 4.63198 18.1414 6.02885 19.4412C6.01285 19.6257 6.00035 19.8112 6.00035 20.0002V21.9807C3.97451 20.5927 2.44619 18.5927 1.63911 16.2733C0.832027 13.954 0.788574 11.4373 1.51511 9.09146C2.24165 6.74566 3.70002 4.69403 5.67673 3.23691C7.65345 1.77978 10.0447 0.993679 12.5004 0.993679C14.9562 0.993679 17.3474 1.77978 19.3241 3.23691C21.3009 4.69403 22.7592 6.74566 23.4858 9.09146C24.2123 11.4373 24.1688 13.954 23.3618 16.2733C22.5547 18.5927 21.0264 20.5927 19.0005 21.9807Z" fill="#DF0E77"/>
</svg>
