<svg width="33" height="33" viewBox="0 0 33 33" fill="none" xmlns="http://www.w3.org/2000/svg">
<g clip-path="url(#clip0)">
<path d="M31.1438 16.2862V9.72793C31.1438 8.21158 29.9101 6.97793 28.3938 6.97793H27.4616L27.6682 6.26011C28.0047 5.0917 27.3313 3.8738 26.1627 3.53734L19.9222 1.7409C19.6303 1.65689 19.3256 1.82539 19.2416 2.1173C19.1575 2.40922 19.3261 2.71392 19.618 2.798L23.5412 3.92735C23.0559 4.8728 23.0381 6.00051 23.529 6.97793H12.0312V2.64668C12.0312 2.34294 11.785 2.09668 11.4812 2.09668C11.1775 2.09668 10.9313 2.34294 10.9313 2.64668V6.97793H9.075V2.64668C9.075 2.34294 8.82874 2.09668 8.525 2.09668C8.22126 2.09668 7.975 2.34294 7.975 2.64668V6.97793H5.56875V2.23418C5.56875 1.62767 6.06224 1.13418 6.66875 1.13418H15.95C16.5565 1.13418 17.05 1.62767 17.05 2.23418V5.25918C17.05 5.56292 17.2963 5.80918 17.6 5.80918C17.9037 5.80918 18.15 5.56292 18.15 5.25918V2.23418C18.15 1.02109 17.1631 0.0341797 15.95 0.0341797H6.66875C5.45566 0.0341797 4.46875 1.02109 4.46875 2.23418V6.97793H2.75C1.23365 6.97793 0 8.21158 0 9.72793V30.2154C0 31.7318 1.23365 32.9654 2.75 32.9654H28.3938C29.9101 32.9654 31.1438 31.7318 31.1438 30.2154V26.1936C31.1438 25.8898 30.8975 25.6436 30.5938 25.6436C30.29 25.6436 30.0438 25.8898 30.0438 26.1936V30.2154C30.0438 31.1252 29.3035 31.8654 28.3938 31.8654H2.75C1.84023 31.8654 1.1 31.1252 1.1 30.2154V9.72793C1.1 8.81816 1.84023 8.07793 2.75 8.07793H28.3938C29.3035 8.07793 30.0438 8.81816 30.0438 9.72793V16.2592H25.5063C24.2932 16.2592 23.3062 17.2461 23.3062 18.4592V21.4842C23.3062 22.6973 24.2932 23.6842 25.5063 23.6842H30.8014C32.0092 23.6842 33 22.7006 33 21.4842V18.4592C33 17.363 32.1941 16.4517 31.1438 16.2862ZM24.6283 4.24037L25.8585 4.5945C26.4428 4.76274 26.7793 5.37159 26.6112 5.95582L26.3169 6.97793H24.8468C24.1523 6.20545 24.0879 5.08208 24.6283 4.24037ZM31.9 21.4842C31.9 22.0907 31.4065 22.5842 30.8 22.5842H25.5063C24.8997 22.5842 24.4062 22.0907 24.4062 21.4842V18.4592C24.4062 17.8527 24.8997 17.3592 25.5063 17.3592H30.8C31.4065 17.3592 31.9 17.8527 31.9 18.4592V21.4842ZM27.5688 19.9717C27.5688 20.2754 27.3225 20.5217 27.0188 20.5217H26.1938C25.89 20.5217 25.6438 20.2754 25.6438 19.9717C25.6438 19.6679 25.89 19.4217 26.1938 19.4217H27.0188C27.3225 19.4217 27.5688 19.6679 27.5688 19.9717Z" fill="#DF0E77"/>
</g>
<defs>
<clipPath id="clip0">
<rect width="33" height="33" fill="white"/>
</clipPath>
</defs>
</svg>
