<svg width="18" height="21" viewBox="0 0 18 21" fill="none" xmlns="http://www.w3.org/2000/svg">
<path d="M6.39265 8.65338L11.5167 5.41334M11.5171 15.2248L6.39319 11.9848M6.85641 10.3179C6.85641 11.4204 6.29829 12.4391 5.39231 12.9904C4.48632 13.5416 3.37009 13.5416 2.4641 12.9904C1.55811 12.4391 1 11.4204 1 10.3179C1 9.21537 1.55811 8.19661 2.4641 7.64535C3.37009 7.0941 4.48632 7.0941 5.39231 7.64535C6.29829 8.19661 6.85641 9.21537 6.85641 10.3179ZM17 16.7319C17 17.8344 16.4419 18.8532 15.5359 19.4044C14.6299 19.9557 13.5137 19.9557 12.6077 19.4044C11.7017 18.8532 11.1436 17.8344 11.1436 16.7319C11.1436 15.6294 11.7017 14.6107 12.6077 14.0594C13.5137 13.5081 14.6299 13.5081 15.5359 14.0594C16.4419 14.6106 17 15.6294 17 16.7319ZM17 3.90383C17 5.00634 16.4419 6.02509 15.5359 6.57635C14.6299 7.1276 13.5137 7.1276 12.6077 6.57635C11.7017 6.02509 11.1436 5.00634 11.1436 3.90383C11.1436 2.80132 11.7017 1.78256 12.6077 1.23131C13.5137 0.680058 14.6299 0.680058 15.5359 1.23131C16.4419 1.78256 17 2.80132 17 3.90383Z" stroke="#DF0E77" stroke-linecap="round" stroke-linejoin="round"/>
</svg>
