<svg width="16" height="19" viewBox="0 0 16 19" fill="none" xmlns="http://www.w3.org/2000/svg">
<path d="M15.4375 0.284668H3.26562C2.44714 0.284668 1.78125 0.950559 1.78125 1.76904V8.77114L0.961578 9.59081C0.341406 10.211 0 11.0354 0 11.9124C0 12.0923 0.0151407 12.274 0.0445313 12.4521L0.506469 15.2225C0.570297 15.6067 0.676281 15.9852 0.821453 16.3483L1.1875 17.2638V18.6909H5.34375V17.2638L5.54859 16.7517C5.60589 16.6083 5.65458 16.4626 5.69941 16.3159H14.8438V13.9409H15.4375V0.284668ZM2.375 1.76904C2.375 1.27801 2.77459 0.878418 3.26562 0.878418H4.15625V10.5438C3.95348 10.6771 3.79881 10.881 3.73677 11.1301L3.51411 12.0204C3.36033 12.635 3.13856 13.2341 2.85534 13.8005C2.8123 13.8872 2.72531 13.9409 2.62853 13.9409C2.489 13.9409 2.375 13.8269 2.375 13.6874V1.76904ZM4.75 18.0972H1.78125V17.5034H4.75V18.0972ZM4.9973 16.5315L4.84589 16.9097H1.68536L1.37275 16.128C1.24331 15.8044 1.14891 15.4672 1.0922 15.1252L0.630266 12.3547C0.605922 12.2087 0.59375 12.0599 0.59375 11.9124C0.59375 11.1939 0.873406 10.5185 1.38136 10.0106L1.78125 9.6107V13.6871C1.78125 14.1547 2.16125 14.5347 2.62853 14.5347C2.95153 14.5347 3.24158 14.3554 3.38645 14.0662C3.68927 13.4609 3.92558 12.8211 4.08975 12.1647L4.31241 11.2744C4.35723 11.0966 4.51636 10.9722 4.69953 10.9722C4.90645 10.9722 5.08102 11.134 5.09705 11.3406L5.3295 14.3607C5.339 14.4842 5.34375 14.608 5.34375 14.7321C5.34375 15.3514 5.22708 15.9567 4.9973 16.5315ZM5.92147 14.315L5.89297 13.9409H13.0625V14.5347H5.93008C5.92741 14.4613 5.92711 14.388 5.92147 14.315ZM14.25 15.7222H5.84547C5.88169 15.5262 5.90425 15.3279 5.9188 15.1284H13.6562V13.9409H14.25V15.7222ZM14.8438 13.3472H5.84695L5.68902 11.2952C5.65102 10.7982 5.24281 10.409 4.75 10.3835V0.878418H14.8438V13.3472Z" fill="#D95C9B"/>
<path d="M13.6562 2.06592H5.9375V12.1597H13.6562V2.06592ZM13.0625 3.25342H12.4688V2.65967H13.0625V3.25342ZM7.71875 4.44092H11.875V9.78467H7.71875V4.44092ZM11.875 3.84717H7.71875V2.65967H11.875V3.84717ZM7.125 4.44092H6.53125V3.84717H7.125V4.44092ZM7.125 5.03467V5.62842H6.53125V5.03467H7.125ZM7.125 6.22217V6.81592H6.53125V6.22217H7.125ZM7.125 7.40967V8.00342H6.53125V7.40967H7.125ZM7.125 8.59717V9.19092H6.53125V8.59717H7.125ZM7.125 9.78467V10.3784H6.53125V9.78467H7.125ZM7.71875 10.3784H11.875V11.5659H7.71875V10.3784ZM12.4688 9.78467H13.0625V10.3784H12.4688V9.78467ZM12.4688 9.19092V8.59717H13.0625V9.19092H12.4688ZM12.4688 8.00342V7.40967H13.0625V8.00342H12.4688ZM12.4688 6.81592V6.22217H13.0625V6.81592H12.4688ZM12.4688 5.62842V5.03467H13.0625V5.62842H12.4688ZM12.4688 4.44092V3.84717H13.0625V4.44092H12.4688ZM7.125 2.65967V3.25342H6.53125V2.65967H7.125ZM6.53125 10.9722H7.125V11.5659H6.53125V10.9722ZM12.4688 11.5659V10.9722H13.0625V11.5659H12.4688Z" fill="#D95C9B"/>
</svg>
