<svg width="39" height="38" viewBox="0 0 39 38" fill="none" xmlns="http://www.w3.org/2000/svg">
<g clip-path="url(#clip0)">
<path d="M24.2064 17.0645L23.4158 16.5908L22.9421 17.3814L23.7327 17.8551L24.2064 17.0645Z" fill="#DF0E77"/>
<path d="M25.1538 15.4834L24.3632 15.0098L23.8895 15.8004L24.6801 16.274L25.1538 15.4834Z" fill="#DF0E77"/>
<path d="M23.2591 18.6455L22.4685 18.1719L21.9948 18.9625L22.7854 19.4362L23.2591 18.6455Z" fill="#DF0E77"/>
<path d="M22.3117 20.2266L21.5211 19.7529L21.0474 20.5435L21.8381 21.0172L22.3117 20.2266Z" fill="#DF0E77"/>
<path d="M21.3643 21.8077L20.5737 21.334L20.1001 22.1246L20.8907 22.5983L21.3643 21.8077Z" fill="#DF0E77"/>
<path d="M20.4171 23.3887L19.6265 22.915L19.1528 23.7056L19.9434 24.1793L20.4171 23.3887Z" fill="#DF0E77"/>
<path d="M19.4697 24.9707L18.6791 24.4971L18.2054 25.2877L18.996 25.7613L19.4697 24.9707Z" fill="#DF0E77"/>
<path d="M22.9404 14.6938L12.6625 8.53613L12.1888 9.32674L22.4667 15.4844L22.9404 14.6938Z" fill="#DF0E77"/>
<path d="M17.73 23.3911L7.45215 17.2334L6.97848 18.024L17.2564 24.1817L17.73 23.3911Z" fill="#DF0E77"/>
<path d="M31.2417 19.6677L26.1028 16.5889L25.6291 17.3795L30.7681 20.4583L31.2417 19.6677Z" fill="#DF0E77"/>
<path d="M26.0314 28.364L20.8925 25.2852L20.4188 26.0758L25.5577 29.1546L26.0314 28.364Z" fill="#DF0E77"/>
<path d="M32.4294 23.065C32.6477 23.1958 32.9307 23.1248 33.0615 22.9065L34.9562 19.7441C35.087 19.5258 35.016 19.2427 34.7977 19.1119L11.8702 5.37551C11.6519 5.24471 11.3688 5.31567 11.238 5.53398L9.34334 8.6964C9.21255 8.91471 9.2835 9.19775 9.50181 9.32854C11.03 10.2441 11.5267 12.2253 10.6111 13.7535C9.69548 15.2817 7.71436 15.7784 6.18612 14.8628C5.96781 14.732 5.68477 14.8029 5.55398 15.0213L3.6593 18.1837C3.52851 18.402 3.59946 18.685 3.81777 18.8158L26.7453 32.5522C26.9637 32.683 27.2467 32.6121 27.3775 32.3938L29.2722 29.2314C29.403 29.013 29.332 28.73 29.1137 28.5992C27.5855 27.6836 27.0888 25.7025 28.0044 24.1742C28.92 22.646 30.9011 22.1494 32.4294 23.065ZM26.9995 24.1106C26.1953 25.8726 26.7177 27.9566 28.258 29.1308L26.8237 31.5248L4.68674 18.262L6.12101 15.8681C8.20478 16.8191 10.665 15.9009 11.616 13.8171C12.4202 12.0551 11.8977 9.97116 10.3575 8.7969L11.7918 6.40295L33.9288 19.6657L32.4945 22.0597C30.4107 21.1086 27.9505 22.0269 26.9995 24.1106Z" fill="#DF0E77"/>
</g>
<defs>
<clipPath id="clip0">
<rect width="27.6492" height="27.6492" fill="white" transform="translate(14.5537) rotate(30.9268)"/>
</clipPath>
</defs>
</svg>
