<svg width="15" height="16" viewBox="0 0 15 16" fill="none" xmlns="http://www.w3.org/2000/svg">
<path d="M7.49997 2.93303V1.31787M6.03424 1.31787H8.96571M9.45978 6.68587L8.03482 8.46019M11.577 11.3343L8.26506 9.53933M1.49478 6.75571C2.15449 5.2384 3.41987 4.03289 5.01256 3.4044C6.60524 2.77591 8.39476 2.77591 9.98744 3.4044C11.5801 4.03289 12.8455 5.2384 13.5052 6.75571C14.1649 8.27303 14.1649 9.97787 13.5052 11.4952C12.8455 13.0125 11.5801 14.218 9.98744 14.8465C8.39476 15.475 6.60524 15.475 5.01256 14.8465C3.41988 14.218 2.15449 13.0125 1.49478 11.4952C0.835072 9.97787 0.835072 8.27303 1.49478 6.75571ZM6.62077 9.12549C6.62077 8.66277 7.01451 8.28766 7.50021 8.28766C7.98591 8.28766 8.37965 8.66277 8.37965 9.12549C8.37965 9.58821 7.98591 9.96332 7.50021 9.96332C7.01451 9.96332 6.62077 9.58821 6.62077 9.12549Z" stroke="#DF0E77" stroke-linecap="round" stroke-linejoin="round"/>
</svg>
