<svg width="13" height="16" viewBox="0 0 13 16" fill="none" xmlns="http://www.w3.org/2000/svg">
<path d="M5.8336 3.50074C4.56432 3.70415 3.44333 4.41436 2.71724 5.47513C1.99114 6.5359 1.71942 7.86033 1.96184 9.15707C2.20426 10.4538 2.94098 11.6166 4.00991 12.3897C5.07884 13.1628 6.39244 13.4829 7.66172 13.2795C8.93099 13.076 10.052 12.3658 10.7781 11.3051C10.8088 11.2602 10.8387 11.2149 10.8677 11.1692C11.0636 10.8607 10.6752 10.5127 10.3274 10.6195C10.1646 10.6696 9.99747 10.7085 9.82693 10.7359C8.82964 10.8957 7.79753 10.6442 6.95766 10.0368C6.11778 9.42935 5.53893 8.51571 5.34846 7.49684C5.15798 6.47798 5.37148 5.43735 5.94198 4.60389C6.03955 4.46136 6.14618 4.32689 6.26092 4.20108C6.50615 3.9322 6.35734 3.43236 5.99479 3.47774C5.94099 3.48447 5.88726 3.49214 5.8336 3.50074Z" stroke="white" stroke-width="0.5" stroke-linecap="round" stroke-linejoin="round"/>
<path d="M8.66667 1.66667L8 2L8.66667 2.33333L9 3L9.33333 2.33333L10 2L9.33333 1.66667L9 1L8.66667 1.66667Z" stroke="white" stroke-width="0.5"/>
<path d="M10.6667 4.66667L10 5L10.6667 5.33333L11 6L11.3333 5.33333L12 5L11.3333 4.66667L11 4L10.6667 4.66667Z" stroke="white" stroke-width="0.5"/>
</svg>
