<svg width="12" height="12" viewBox="0 0 12 12" fill="none" xmlns="http://www.w3.org/2000/svg">
<path d="M11.7198 1.43165L11.4873 1.19916C11.4187 1.13051 11.3074 1.13054 11.2388 1.19916C11.1701 1.2678 11.1701 1.37908 11.2388 1.4477L11.4713 1.6802C11.7071 1.91604 11.7071 2.29977 11.4713 2.53561L11.1508 2.85606L9.14388 0.849109L9.46433 0.52866C9.70017 0.292817 10.0839 0.292817 10.3197 0.52866L10.6599 0.868843C10.7285 0.937465 10.8398 0.937465 10.9085 0.868843C10.9771 0.80022 10.9771 0.68892 10.9085 0.620297L10.5683 0.280115C10.3877 0.0994885 10.1475 0 9.89203 0C9.63657 0 9.39639 0.0994885 9.21576 0.280115L2.17191 7.32397C2.10326 7.39259 2.10326 7.50389 2.17191 7.57252C2.24053 7.64114 2.35183 7.64114 2.42045 7.57252L8.12071 1.87226L8.99991 2.75146L1.77084 9.98044L1.1965 9.72238C1.17571 9.71305 1.15914 9.69646 1.14981 9.67572L0.891704 9.10133L1.84349 8.14955C1.91213 8.08093 1.91213 7.96963 1.84349 7.901C1.77487 7.83238 1.66357 7.83238 1.59494 7.901C1.59494 7.901 0.555646 8.94072 0.554638 8.94178C0.509288 8.98935 0.504109 9.05573 0.492227 9.11781C0.482383 9.16918 0.00840083 11.6424 0.00514314 11.6594C-0.0127624 11.7529 0.0166974 11.8488 0.0839605 11.9161C0.138263 11.9704 0.211245 12 0.286523 12C0.304476 12 0.322592 11.9984 0.340592 11.9949C0.340592 11.9949 2.96934 11.4911 2.97067 11.4908C3.00046 11.4848 3.03398 11.4682 3.05704 11.4466C3.05851 11.4453 11.7199 2.7842 11.7199 2.7842C12.0927 2.4113 12.0927 1.80455 11.7198 1.43165ZM0.499937 10.945L1.05501 11.5L1.05241 11.5005L0.368317 11.6316L0.499937 10.945ZM1.47218 11.4201L0.57988 10.5278L0.749537 9.64256L0.829152 9.81974C0.873775 9.91906 0.953038 9.99832 1.05239 10.043L1.67643 10.3234L1.9569 10.9475C2.00152 11.0468 2.08081 11.1261 2.18011 11.1707L2.35743 11.2504L1.47218 11.4201ZM2.89865 11.1083L2.32422 10.8501C2.30346 10.8408 2.28686 10.8242 2.27754 10.8034L2.0194 10.229L9.2485 3.00001L10.1277 3.87921L2.89865 11.1083ZM10.3762 3.63069L8.36928 1.62374L8.89534 1.09768L10.9023 3.10463L10.3762 3.63069Z" fill="#DF0E77"/>
</svg>
