<svg width="32" height="32" viewBox="0 0 32 32" fill="none" xmlns="http://www.w3.org/2000/svg">
<path d="M4.5 27C4.5 28.3785 5.6215 29.5 7 29.5H12C13.3785 29.5 14.5 28.3785 14.5 27V19.5H4.5V27ZM5.5 27V26.5H7.5V28.5H7C6.173 28.5 5.5 27.827 5.5 27ZM10.5 23.5V25.5H8.5V23.5H10.5ZM8.5 22.5V20.5H10.5V22.5H8.5ZM11.5 23.5H13.5V25.5H11.5V23.5ZM10.5 26.5V28.5H8.5V26.5H10.5ZM7.5 25.5H5.5V23.5H7.5V25.5ZM12 28.5H11.5V26.5H13.5V27C13.5 27.827 12.827 28.5 12 28.5ZM13.5 22.5H11.5V20.5H13.5V22.5ZM7.5 20.5V22.5H5.5V20.5H7.5Z" fill="#DF0E77"/>
<path d="M4.5 18.5H14.5V12.5H4.5V18.5ZM5.5 13.5H13.5V17.5H5.5V13.5Z" fill="#DF0E77"/>
<path d="M6.5 3.5H8.5V4.5H6.5V3.5Z" fill="#DF0E77"/>
<path d="M10.5 3.5H12.5V4.5H10.5V3.5Z" fill="#DF0E77"/>
<path d="M6.5 5.5H12.5V6.5H6.5V5.5Z" fill="#DF0E77"/>
<path d="M30 6.99993H18.5V6.49993C18.5 5.67293 17.827 4.99993 17 4.99993H16.288C15.966 4.26593 15.3035 3.71443 14.5 3.55043V0.0654297L12.5635 1.35643L11.5 0.29293L10.5 1.29293L9.5 0.29293L8.5 1.29293L7.5 0.29293L6.4365 1.35643L4.5 0.0654297V3.55043C3.6965 3.71443 3.034 4.26593 2.712 4.99993H2C1.173 4.99993 0.5 5.67293 0.5 6.49993V10.4999C0.5 11.3269 1.173 11.9999 2 11.9999H2.5V26.9999C2.5 29.4809 4.5185 31.4999 7 31.4999H12C14.4815 31.4999 16.5 29.4809 16.5 26.9999V22.9999H30C30.827 22.9999 31.5 22.3269 31.5 21.4999V8.49993C31.5 7.67293 30.827 6.99993 30 6.99993ZM30 7.99993C30.276 7.99993 30.5 8.22443 30.5 8.49993V8.99993H18.5V7.99993H30ZM18.5 9.99993H30.5V10.9999H18.408C18.464 10.8429 18.5 10.6759 18.5 10.4999V9.99993ZM17 5.99993C17.276 5.99993 17.5 6.22443 17.5 6.49993V10.4999C17.5 10.7754 17.276 10.9999 17 10.9999H16.5V5.99993H17ZM5.5 1.93443L6.5635 2.64343L7.5 1.70693L8.5 2.70693L9.5 1.70693L10.5 2.70693L11.5 1.70693L12.4365 2.64343L13.5 1.93443V7.49993H5.5V1.93443ZM4.5 4.59193V8.49993H14.5V4.59193C15.0805 4.79893 15.5 5.34893 15.5 5.99993V9.49993H3.5V5.99993C3.5 5.34893 3.9195 4.79893 4.5 4.59193ZM2 10.9999C1.724 10.9999 1.5 10.7754 1.5 10.4999V6.49993C1.5 6.22443 1.724 5.99993 2 5.99993H2.5V10.9999H2ZM12 30.4999H7C5.0705 30.4999 3.5 28.9299 3.5 26.9999V10.4999H15.5V26.9999C15.5 28.9299 13.9295 30.4999 12 30.4999ZM30 21.9999H16.5V11.9999H17H30.5V21.4999C30.5 21.7754 30.276 21.9999 30 21.9999Z" fill="#DF0E77"/>
<path d="M25.5 16H23.5V21H28.5V18H29.5V14H25.5V16ZM27.5 20H24.5V17H25.5V18H27.5V20ZM26.5 15H28.5V17H26.5V15Z" fill="#DF0E77"/>
<path d="M19.5 18H21.5V19H19.5V18Z" fill="#DF0E77"/>
<path d="M17.5 18H18.5V19H17.5V18Z" fill="#DF0E77"/>
<path d="M17.5 20H21.5V21H17.5V20Z" fill="#DF0E77"/>
<path d="M17.5 16H21.5V17H17.5V16Z" fill="#DF0E77"/>
</svg>
