<svg width="19" height="19" viewBox="0 0 19 19" fill="none" xmlns="http://www.w3.org/2000/svg">
<path d="M14.3784 18.4866H4.62161C4.28126 18.4862 3.95496 18.3509 3.71429 18.1102C3.47362 17.8695 3.33824 17.5432 3.33783 17.2029V5.50502H3.85134V17.2029C3.85134 17.4071 3.9325 17.6031 4.07695 17.7475C4.2214 17.892 4.41733 17.9731 4.62161 17.9731H14.3784C14.5827 17.9731 14.7786 17.892 14.923 17.7475C15.0675 17.6031 15.1486 17.4071 15.1486 17.2029V1.79746C15.1486 1.59317 15.0675 1.39725 14.923 1.25279C14.7786 1.10834 14.5827 1.02719 14.3784 1.02719H4.62161C4.41733 1.02719 4.2214 1.10834 4.07695 1.25279C3.9325 1.39725 3.85134 1.59317 3.85134 1.79746V4.478H3.33783V1.79746C3.33824 1.4571 3.47362 1.1308 3.71429 0.890134C3.95496 0.649466 4.28126 0.51408 4.62161 0.513672H14.3784C14.7187 0.51408 15.045 0.649466 15.2857 0.890134C15.5264 1.1308 15.6617 1.4571 15.6622 1.79746V17.2029C15.6617 17.5432 15.5264 17.8695 15.2857 18.1102C15.045 18.3509 14.7187 18.4862 14.3784 18.4866Z" fill="#DF0E77"/>
<path d="M3.5946 15.9189H12.9868V16.4325H3.5946V15.9189Z" fill="#DF0E77"/>
<path d="M14.0138 15.9189H15.4054V16.4325H14.0138V15.9189Z" fill="#DF0E77"/>
<path d="M8.47296 16.9458H10.527V17.4593H8.47296V16.9458Z" fill="#DF0E77"/>
<path d="M3.5946 2.56738H15.4054V3.0809H3.5946V2.56738Z" fill="#DF0E77"/>
<path d="M7.95947 1.54053H11.0406V2.05404H7.95947V1.54053Z" fill="#DF0E77"/>
</svg>
