<svg width="30" height="25" viewBox="0 0 30 25" fill="none" xmlns="http://www.w3.org/2000/svg">
<path d="M10.1112 20.444C9.81493 22.0736 7.889 23.9996 4.77789 23.9996C-0.629011 23.9996 7.44463 23.5551 5.22241 17.7773" stroke="url(#paint0_linear)"/>
<path d="M28.7223 10.6667C28.7223 13.4195 27.2357 15.9499 24.7567 17.8091C22.2775 19.6685 18.8297 20.8333 15.0001 20.8333C13.4678 20.8333 11.9955 20.6468 10.6213 20.3033C9.50784 20.025 8.45949 19.6438 7.49627 19.1758C6.57373 18.7276 5.73017 18.2002 4.98247 17.608C2.66032 15.769 1.27783 13.3219 1.27783 10.6667C1.27783 7.91381 2.76442 5.38345 5.24342 3.52419C7.72258 1.66483 11.1704 0.5 15.0001 0.5C18.8297 0.5 22.2775 1.66483 24.7567 3.52419C27.2357 5.38345 28.7223 7.91381 28.7223 10.6667Z" stroke="url(#paint1_linear)"/>
<circle cx="10.5556" cy="10.6662" r="0.888889" fill="#DF0E77"/>
<circle cx="15.0001" cy="10.6662" r="0.888889" fill="#DF0E77"/>
<circle cx="19.4446" cy="10.6662" r="0.888889" fill="#DF0E77"/>
<defs>
<linearGradient id="paint0_linear" x1="6.49385" y1="17.7773" x2="6.49385" y2="23.9996" gradientUnits="userSpaceOnUse">
<stop stop-color="#390796"/>
<stop offset="1" stop-color="#DF0E77"/>
</linearGradient>
<linearGradient id="paint1_linear" x1="3.88894" y1="3.55556" x2="23.4445" y2="21.3333" gradientUnits="userSpaceOnUse">
<stop stop-color="#DF0E77"/>
<stop offset="1" stop-color="#390796"/>
</linearGradient>
</defs>
</svg>
