<svg width="19" height="20" viewBox="0 0 19 20" fill="none" xmlns="http://www.w3.org/2000/svg">
<g clip-path="url(#clip0)">
<path d="M9.56194 4.19922C8.22291 4.19922 7.13303 5.29832 7.13303 6.64867C7.13303 7.99902 8.22291 9.09812 9.56194 9.09812C10.901 9.09812 11.9909 7.99902 11.9909 6.64867C11.9909 5.29832 10.901 4.19922 9.56194 4.19922ZM9.56194 8.39828C8.60529 8.39828 7.827 7.6134 7.827 6.64867C7.827 5.68394 8.60529 4.89906 9.56194 4.89906C10.5186 4.89906 11.2969 5.68394 11.2969 6.64867C11.2969 7.6134 10.5186 8.39828 9.56194 8.39828Z" fill="#DF0E77"/>
<path d="M14.2057 1.96551C12.9489 0.698093 11.2778 0 9.50053 0C7.72291 0 6.05217 0.698093 4.79538 1.96551C2.46952 4.31068 2.18048 8.72319 4.16941 11.3966L9.50053 19.1606L14.8237 11.4074C16.8206 8.72319 16.5315 4.31068 14.2057 1.96551ZM14.2609 10.9984L9.50053 17.931L4.73257 10.9875C2.92858 8.56188 3.18709 4.57697 5.28636 2.4603C6.41199 1.32515 7.90855 0.699843 9.50053 0.699843C11.0925 0.699843 12.5891 1.32515 13.715 2.4603C15.8143 4.57697 16.0728 8.56188 14.2609 10.9984Z" fill="#DF0E77"/>
</g>
<defs>
<clipPath id="clip0">
<rect width="19" height="19.1606" fill="white"/>
</clipPath>
</defs>
</svg>
