<?xml version="1.0" encoding="utf-8"?>
<!-- Generator: Adobe Illustrator 22.1.0, SVG Export Plug-In . SVG Version: 6.00 Build 0)  -->
<svg version="1.1" id="Слой_1" xmlns="http://www.w3.org/2000/svg" xmlns:xlink="http://www.w3.org/1999/xlink" x="0px" y="0px"
	 viewBox="0 0 22 19" style="enable-background:new 0 0 22 19;" xml:space="preserve">
<style type="text/css">
	.st0{fill:url(#SVGID_1_);}
</style>
<g>
	<g>
		
			<linearGradient id="SVGID_1_" gradientUnits="userSpaceOnUse" x1="4.0352" y1="20.3964" x2="17.9648" y2="6.4668" gradientTransform="matrix(1 0 0 -1 0 20)">
			<stop  offset="0" style="stop-color:#D95C9B"/>
			<stop  offset="1" style="stop-color:#550D97"/>
		</linearGradient>
		<path class="st0" d="M18.8,0.8c-0.9-0.5-1.9-0.8-3-0.8c-1.9,0-3.6,0.9-4.8,2.3C9.9,0.9,8.1,0,6.2,0c-1.1,0-2.1,0.3-3,0.8
			C1.3,1.8,0,3.9,0,6.2c0,0.7,0.1,1.3,0.3,1.9C1.4,12.9,11,19,11,19s9.6-6.1,10.7-10.9C21.9,7.5,22,6.9,22,6.2
			C22,3.9,20.7,1.8,18.8,0.8z"/>
	</g>
</g>
</svg>
