<?xml version="1.0" encoding="utf-8"?>
<!-- Generator: Adobe Illustrator 23.0.4, SVG Export Plug-In . SVG Version: 6.00 Build 0)  -->
<svg version="1.1" id="Слой_1" xmlns="http://www.w3.org/2000/svg" xmlns:xlink="http://www.w3.org/1999/xlink" x="0px" y="0px"
	 viewBox="0 0 23 20" style="enable-background:new 0 0 23 20;" xml:space="preserve">
<style type="text/css">
	.st0{fill:#989797;}
</style>
<g>
	<g>
		<g>
			<path class="st0" d="M11.5,20l-0.3-0.2c-0.4-0.3-9.8-6.2-10.9-11.1C0.1,8.1,0,7.4,0,6.7C0,4.3,1.3,2,3.5,0.8C4.5,0.3,5.6,0,6.7,0
				c1.8,0,3.5,0.7,4.8,2c1.3-1.3,3-2,4.8-2c1.1,0,2.3,0.3,3.2,0.8h0C21.7,2,23,4.3,23,6.7c0,0.7-0.1,1.4-0.3,2.1
				c-1.1,4.9-10.5,10.8-10.9,11.1L11.5,20z M6.7,1c-1,0-1.9,0.2-2.8,0.7c-1.8,1-3,2.9-3,5c0,0.6,0.1,1.2,0.3,1.8
				c0.9,4.1,8.7,9.4,10.2,10.4c1.5-1,9.3-6.2,10.2-10.3C21.9,7.9,22,7.3,22,6.7c0-2.1-1.1-4-3-5C18.2,1.2,17.3,1,16.3,1
				c-1.7,0-3.3,0.8-4.4,2.1l-0.4,0.5l-0.4-0.5C10,1.7,8.4,1,6.7,1z"/>
		</g>
	</g>
</g>
</svg>
