<svg width="232" height="52" viewBox="0 0 232 52" fill="none" xmlns="http://www.w3.org/2000/svg">
<path d="M121.334 28.8637C121.334 32.285 118.946 33.9956 114.186 33.9956H98.7227V23.2914H114.288C115.304 23.2914 115.812 22.9018 115.812 22.1058C115.812 21.3436 115.304 20.971 114.288 20.971H98.7227L102.398 16.3979H114.051C116.219 16.3979 117.912 16.8044 119.098 17.6005C120.334 18.4812 120.961 19.7007 120.961 21.2589C120.961 22.2074 120.707 23.0373 120.199 23.7317C119.759 24.3076 119.217 24.7141 118.573 24.9343C119.403 25.1544 120.047 25.6117 120.538 26.2723C121.08 27.0006 121.334 27.8475 121.334 28.8637ZM104.193 27.0514V29.4734H114.22C115.338 29.4734 115.897 29.0669 115.897 28.237C115.897 27.441 115.338 27.0514 114.22 27.0514H104.193Z" fill="white"/>
<path d="M129.599 33.9956H124.162V16.3979H129.599V33.9956Z" fill="white"/>
<path d="M152.058 29.4734L148.535 33.9956H132.986V16.3979H138.423V29.4734H152.058Z" fill="white"/>
<path d="M178.361 25.1882C178.361 28.2877 177.294 30.5911 175.16 32.0985C173.077 33.5551 169.859 34.2834 165.506 34.2834C161.153 34.2834 157.935 33.5551 155.852 32.0985C153.717 30.625 152.65 28.3215 152.65 25.1882C152.65 22.0717 153.717 19.7683 155.852 18.2948C157.969 16.8382 161.187 16.1099 165.506 16.1099C169.808 16.1099 173.009 16.8382 175.126 18.2948C177.294 19.7852 178.361 22.0887 178.361 25.1882ZM172.941 25.1882C172.941 23.359 172.382 22.1395 171.281 21.5128C170.299 20.9708 168.368 20.6998 165.489 20.6998C162.609 20.6998 160.696 20.9708 159.73 21.5128C158.612 22.1395 158.053 23.3759 158.053 25.1882C158.053 27.0513 158.612 28.2707 159.73 28.8635C160.746 29.4225 162.66 29.7104 165.489 29.7104C168.317 29.7104 170.248 29.4225 171.281 28.8635C172.399 28.2538 172.941 27.0343 172.941 25.1882Z" fill="white"/>
<path d="M206.291 25.1882C206.291 28.2877 205.224 30.5911 203.09 32.0985C201.006 33.5551 197.788 34.2834 193.435 34.2834C189.083 34.2834 185.864 33.5551 183.781 32.0985C181.647 30.625 180.58 28.3215 180.58 25.1882C180.58 22.0717 181.647 19.7683 183.781 18.2948C185.898 16.8382 189.116 16.1099 193.435 16.1099C197.737 16.1099 200.939 16.8382 203.056 18.2948C205.224 19.7852 206.291 22.0887 206.291 25.1882ZM200.871 25.1882C200.871 23.359 200.312 22.1395 199.211 21.5128C198.229 20.9708 196.298 20.6998 193.418 20.6998C190.539 20.6998 188.625 20.9708 187.66 21.5128C186.542 22.1395 185.983 23.3759 185.983 25.1882C185.983 27.0513 186.542 28.2707 187.66 28.8635C188.676 29.4225 190.59 29.7104 193.418 29.7104C196.247 29.7104 198.178 29.4225 199.211 28.8635C200.329 28.2538 200.871 27.0343 200.871 25.1882Z" fill="white"/>
<path d="M231.256 33.9956H223.025L217.706 29.3718C216.114 27.966 215.03 26.9837 214.437 26.4247L214.471 27.0514L214.505 27.6781C214.522 27.8983 214.539 28.1354 214.539 28.3556V33.9787H209.068V16.3979H214.539V20.4798C214.539 21.8178 214.505 22.8341 214.437 23.5624C214.471 23.5285 214.658 23.3591 215.013 23.0373L215.352 22.7155L215.725 22.3937C216.351 21.8178 217.012 21.242 217.672 20.683L222.754 16.3979H230.646L223.905 21.4452C221.958 22.9187 220.45 24.0027 219.349 24.6802C219.806 25.002 220.077 25.1883 220.196 25.2561L220.704 25.6287L221.212 26.0013C221.585 26.2892 222.025 26.628 222.533 27.0345L223.245 27.5934L224.007 28.2031L231.256 33.9956Z" fill="white"/>
<path d="M6.99094 36.5189C5.87309 36.5189 4.77218 36.5359 3.65433 36.5189C2.70585 36.502 2.53648 36.3157 2.51954 35.3164C2.5026 33.5041 2.5026 31.7088 2.51954 29.8965C2.53648 28.9141 2.68891 28.7448 3.6882 28.7448C5.68678 28.7278 7.66843 28.7448 9.66701 28.7278C10.9881 28.7278 11.022 28.694 11.0389 27.339C11.0389 25.73 11.022 24.1209 11.0559 22.5119C11.0728 21.5295 11.1914 21.3941 12.106 21.3941C14.3247 21.3771 16.5435 21.3771 18.7623 21.3941C19.6938 21.411 19.7954 21.5295 19.8124 22.5119C19.8293 24.2734 19.8293 26.0518 19.8124 27.8132C19.7954 28.9141 19.7107 28.9988 18.5929 28.9988C16.5943 29.0158 14.6127 28.9988 12.6141 29.0158C11.564 29.0158 11.5132 29.0835 11.4962 30.1505C11.4793 31.8443 11.4962 33.521 11.4793 35.2148C11.4623 36.3495 11.3099 36.485 10.1921 36.502C9.12502 36.5189 8.05798 36.5189 6.99094 36.5189Z" fill="white"/>
<path d="M4.07762 16.0588C5.11078 16.0588 6.16089 16.0758 7.19405 16.0588C7.95622 16.0419 8.10865 15.8725 8.10865 14.8732C8.12559 13.0609 8.12559 11.2487 8.10865 9.45334C8.09172 8.47098 7.95622 8.28468 7.17711 8.28468C5.05997 8.26774 2.95977 8.26774 0.842624 8.28468C0.114327 8.28468 0.0127029 8.42017 0.0127029 9.40253C-0.00423428 11.2487 -0.00423428 13.0948 0.0127029 14.941C0.0127029 15.9403 0.114326 16.0419 0.944245 16.0588C1.99435 16.0758 3.02751 16.0588 4.07762 16.0588Z" fill="white"/>
<path d="M98.6887 48.8152C98.6887 45.4278 98.6887 42.0573 98.6887 38.6699C98.6887 37.4335 98.6718 37.4674 97.537 37.2811C93.489 36.6544 90.3218 34.588 88.5942 30.7433C87.1715 27.5591 87.1376 24.2056 88.6958 20.9706C90.5589 17.1089 93.6923 15.1442 97.7741 14.6869C98.4516 14.6192 98.6718 14.399 98.604 13.6537C98.5024 12.6036 98.604 11.5535 98.621 10.5034C98.6379 9.4364 98.6718 8.3863 98.6718 7.31926C98.6887 5.32068 98.6887 3.30516 98.6718 1.30657C98.6718 0.120975 98.5871 0.0362897 97.4184 0.0362897C92.2357 0.0193526 87.0699 0.0193528 81.8871 0.0193528H74.5533C74.5533 0.120976 74.5364 0.730712 74.5194 0.815398C74.4686 1.06945 74.1299 1.44207 73.9605 1.4082C73.7065 1.37432 73.3 1.06946 73.283 0.832336C73.2661 0.730713 73.2661 0.120976 73.2661 0.00241594C63.0361 0.00241594 52.806 0.00241594 42.576 0.00241594C42.2711 0.00241594 41.9663 0.0193531 41.6614 0.00241594C40.9839 -0.0314583 40.696 0.290348 40.696 1.00171C40.7129 2.64461 40.7129 4.30445 40.696 5.96429C40.679 7.14989 40.5266 7.33619 39.3579 7.33619C36.8343 7.35313 34.2937 7.35313 31.7701 7.33619C30.8047 7.33619 30.7708 7.23457 30.8047 6.23528C30.8386 4.54157 30.8386 2.84786 30.8216 1.17108C30.8047 0.256473 30.6184 0.0362897 29.7377 0.0362897C26.8922 0.0193526 24.0637 0.03629 21.2352 0.0193528C20.5408 0.0193528 20.2698 0.341159 20.2867 1.01864C20.3037 2.86479 20.2698 4.71094 20.2867 6.55709C20.3037 7.48863 20.4222 7.62413 21.3876 7.62413C23.9113 7.64106 26.4518 7.62413 28.9755 7.62413C30.3643 7.62413 30.3643 7.62413 30.3643 9.06378C30.3643 10.6389 30.3643 12.2141 30.3643 13.7892C30.3643 15.0426 30.449 15.1273 31.6685 15.1273C37.2747 15.1273 42.8639 15.1273 48.4532 15.1273C50.4856 15.1273 50.401 14.9918 50.401 17.1089C50.401 18.3623 50.4179 19.6326 50.401 20.8859C50.384 21.8683 50.2824 21.9699 49.3339 21.9868C47.42 22.0038 45.5061 21.9868 43.5922 21.9868C42.1187 21.9868 42.0848 22.0207 42.0848 23.4773C42.0848 24.9678 42.0848 26.4752 42.0848 27.9656C42.0848 28.4229 42.1018 28.931 42.1018 28.931C42.1018 28.931 42.2542 28.931 42.4066 28.931C44.2358 28.931 46.065 28.931 47.9112 28.931C48.4871 28.931 48.7581 29.1851 48.7581 29.7779C48.7581 31.624 48.7581 33.4533 48.7581 35.2994C48.7581 35.96 48.4532 36.1971 47.8434 36.1801C46.9627 36.1632 46.082 36.1801 45.2013 36.1801C44.2866 36.1801 43.372 36.1632 42.4574 36.1801C41.8816 36.1801 41.6106 35.943 41.6106 35.3502C41.6106 33.5041 41.6106 31.6749 41.6106 29.8287C41.6106 29.6932 41.6106 29.49 41.6106 29.49C41.6106 29.49 41.0855 29.5238 40.5435 29.5238C34.4123 29.5238 28.2811 29.5238 22.1498 29.5238C21.8449 29.5238 21.5401 29.5408 21.2352 29.5238C20.5408 29.49 20.2867 29.8457 20.2867 30.5231C20.3037 32.3693 20.2698 34.2154 20.3037 36.0616C20.3206 36.9931 20.4392 37.1286 21.4046 37.1286C24.2839 37.1456 27.1463 37.1286 30.0256 37.1286C30.3304 37.1286 30.6353 37.1286 30.9402 37.1456C31.4483 37.1625 31.7193 37.4165 31.7193 37.9585C31.7193 39.8386 31.7193 41.7355 31.7193 43.6155C31.7193 44.2761 31.3297 44.3777 30.8216 44.3777C29.5175 44.3608 28.2133 44.3777 26.9091 44.3777C22.9967 44.3777 19.0842 44.3777 15.1717 44.3777C13.8506 44.3777 13.8167 44.4285 13.7998 45.7666C13.7998 47.3756 13.7998 48.9846 13.7998 50.6106C13.7998 51.9317 13.8506 51.9994 15.1717 51.9994C22.8442 51.9994 30.4998 51.9994 38.1723 51.9994H43.5753H71.403C71.6401 51.9994 71.8603 51.9994 72.0974 51.9994C73.0628 51.9486 73.1475 51.8639 73.1814 50.8985C73.1983 50.3904 73.1306 49.8653 73.2322 49.3742C73.283 49.1201 73.6556 48.7814 73.8758 48.7983C74.096 48.7983 74.4348 49.137 74.5025 49.3911C74.6041 49.7976 74.5364 50.2549 74.5364 50.6783C74.5533 51.9317 74.6041 51.9825 75.8744 51.9994C75.993 51.9994 76.1115 51.9994 76.2131 51.9994C83.1066 51.9994 90.0169 51.9994 96.9103 51.9994C97.1813 51.9994 97.4523 51.9825 97.7233 51.9994C98.4008 52.0164 98.7057 51.6607 98.7057 50.9832C98.6718 50.238 98.6887 49.5266 98.6887 48.8152ZM73.283 5.60861C73.3 5.37149 73.7065 5.06662 73.9605 5.01581C74.1299 4.98193 74.4686 5.35455 74.5364 5.59167C74.6211 6.03204 74.5533 6.50628 74.5533 6.98052C74.5533 7.43782 74.6211 7.929 74.5364 8.36936C74.4856 8.62342 74.1468 8.99604 73.9775 8.96216C73.7234 8.92829 73.3169 8.62342 73.3 8.3863C73.2153 7.47169 73.1983 6.54015 73.283 5.60861ZM74.5364 44.5979C74.5194 44.852 74.1468 45.2415 73.9266 45.2584C73.7065 45.2584 73.3338 44.9028 73.283 44.6487C73.1814 44.1745 73.2491 43.6494 73.2491 43.1413C73.2491 42.684 73.1645 42.1928 73.283 41.7525C73.3508 41.4815 73.6726 41.0919 73.8928 41.0919C74.113 41.0919 74.5194 41.4645 74.5364 41.7016C74.6041 42.6671 74.6041 43.6325 74.5364 44.5979ZM74.5194 27.6608C74.4686 27.9148 74.096 28.2197 73.8419 28.2536C73.6726 28.2874 73.283 27.8979 73.2661 27.6777C73.1983 26.6276 73.1983 25.5606 73.2661 24.5105C73.283 24.2564 73.6726 23.8668 73.8928 23.8499C74.113 23.8499 74.4686 24.2225 74.5194 24.4935C74.6211 24.9678 74.5533 25.4928 74.5533 26.0009C74.5533 26.5598 74.6211 27.1357 74.5194 27.6608ZM73.283 34.0799C73.3169 33.8428 73.6895 33.4871 73.8589 33.5041C74.1129 33.5549 74.5194 33.8598 74.5364 34.0969C74.6041 35.1809 74.6041 36.2818 74.5364 37.3657C74.5194 37.569 74.1468 37.9416 73.9605 37.9247C73.7065 37.8908 73.3338 37.6029 73.283 37.3488C73.1814 36.8237 73.2491 36.2648 73.2491 35.7228C73.2491 35.1639 73.1983 34.605 73.283 34.0799ZM74.5364 17.9388C74.4686 18.2098 74.1468 18.5994 73.9266 18.5994C73.7065 18.5994 73.3 18.2268 73.283 17.9897C73.1983 17.0242 73.1983 16.0588 73.283 15.0934C73.3 14.8393 73.6556 14.4837 73.9097 14.4159C74.3839 14.2974 74.5703 14.6869 74.5872 15.1781C74.5872 15.6354 74.5872 16.0927 74.5872 16.5669C74.5703 17.0242 74.638 17.5154 74.5364 17.9388Z" fill="white"/>
</svg>
