<svg width="232" height="52" viewBox="0 0 232 52" fill="none" xmlns="http://www.w3.org/2000/svg">
<path d="M121.333 28.8632C121.333 32.2845 118.945 33.9951 114.186 33.9951H98.7224V23.2909H114.288C115.304 23.2909 115.812 22.9013 115.812 22.1053C115.812 21.3431 115.304 20.9705 114.288 20.9705H98.7224L102.398 16.3975H114.051C116.218 16.3975 117.912 16.804 119.098 17.6C120.334 18.4807 120.961 19.7002 120.961 21.2584C120.961 22.2069 120.707 23.0368 120.199 23.7312C119.758 24.3071 119.216 24.7136 118.573 24.9338C119.403 25.154 120.046 25.6113 120.537 26.2718C121.079 27.0001 121.333 27.847 121.333 28.8632ZM104.193 27.0509V29.4729H114.22C115.338 29.4729 115.897 29.0664 115.897 28.2365C115.897 27.4405 115.338 27.0509 114.22 27.0509H104.193Z" fill="#333333"/>
<path d="M129.599 33.9951H124.162V16.3975H129.599V33.9951Z" fill="#333333"/>
<path d="M152.058 29.4729L148.535 33.9951H132.986V16.3975H138.423V29.4729H152.058Z" fill="#333333"/>
<path d="M178.361 25.1877C178.361 28.2872 177.294 30.5906 175.16 32.098C173.076 33.5546 169.858 34.2829 165.505 34.2829C161.153 34.2829 157.935 33.5546 155.851 32.098C153.717 30.6245 152.65 28.3211 152.65 25.1877C152.65 22.0712 153.717 19.7678 155.851 18.2943C157.968 16.8377 161.186 16.1094 165.505 16.1094C169.807 16.1094 173.009 16.8377 175.126 18.2943C177.294 19.7847 178.361 22.0882 178.361 25.1877ZM172.941 25.1877C172.941 23.3585 172.382 22.139 171.281 21.5123C170.299 20.9703 168.368 20.6993 165.488 20.6993C162.609 20.6993 160.695 20.9703 159.73 21.5123C158.612 22.139 158.053 23.3754 158.053 25.1877C158.053 27.0508 158.612 28.2702 159.73 28.863C160.746 29.422 162.66 29.7099 165.488 29.7099C168.317 29.7099 170.248 29.422 171.281 28.863C172.399 28.2533 172.941 27.0338 172.941 25.1877Z" fill="#333333"/>
<path d="M206.29 25.1877C206.29 28.2872 205.223 30.5906 203.089 32.098C201.006 33.5546 197.788 34.2829 193.435 34.2829C189.082 34.2829 185.864 33.5546 183.781 32.098C181.647 30.6245 180.58 28.3211 180.58 25.1877C180.58 22.0712 181.647 19.7678 183.781 18.2943C185.898 16.8377 189.116 16.1094 193.435 16.1094C197.737 16.1094 200.938 16.8377 203.055 18.2943C205.223 19.7847 206.29 22.0882 206.29 25.1877ZM200.87 25.1877C200.87 23.3585 200.311 22.139 199.21 21.5123C198.228 20.9703 196.297 20.6993 193.418 20.6993C190.539 20.6993 188.625 20.9703 187.659 21.5123C186.541 22.139 185.983 23.3754 185.983 25.1877C185.983 27.0508 186.541 28.2702 187.659 28.863C188.676 29.422 190.589 29.7099 193.418 29.7099C196.246 29.7099 198.177 29.422 199.21 28.863C200.328 28.2533 200.87 27.0338 200.87 25.1877Z" fill="#333333"/>
<path d="M231.256 33.9951H223.024L217.706 29.3713C216.114 27.9655 215.03 26.9832 214.437 26.4242L214.471 27.0509L214.505 27.6776C214.522 27.8978 214.539 28.1349 214.539 28.3551V33.9782H209.068V16.3975H214.539V20.4793C214.539 21.8173 214.505 22.8336 214.437 23.5619C214.471 23.528 214.657 23.3586 215.013 23.0368L215.352 22.715L215.724 22.3932C216.351 21.8173 217.011 21.2415 217.672 20.6826L222.753 16.3975H230.646L223.905 21.4447C221.957 22.9183 220.45 24.0022 219.349 24.6797C219.806 25.0015 220.077 25.1878 220.196 25.2556L220.704 25.6282L221.212 26.0008C221.584 26.2887 222.025 26.6275 222.533 27.034L223.244 27.5929L224.006 28.2026L231.256 33.9951Z" fill="#333333"/>
<path d="M6.9907 36.5184C5.87285 36.5184 4.77193 36.5354 3.65408 36.5184C2.7056 36.5015 2.53623 36.3152 2.51929 35.3159C2.50236 33.5036 2.50236 31.7083 2.51929 29.896C2.53623 28.9137 2.68866 28.7443 3.68796 28.7443C5.68654 28.7273 7.66818 28.7443 9.66677 28.7273C10.9879 28.7273 11.0217 28.6935 11.0387 27.3385C11.0387 25.7295 11.0217 24.1204 11.0556 22.5114C11.0725 21.5291 11.1911 21.3936 12.1057 21.3936C14.3245 21.3766 16.5432 21.3766 18.762 21.3936C19.6936 21.4105 19.7952 21.5291 19.8121 22.5114C19.829 24.2729 19.829 26.0513 19.8121 27.8127C19.7952 28.9137 19.7105 28.9983 18.5926 28.9983C16.5941 29.0153 14.6124 28.9983 12.6138 29.0153C11.5637 29.0153 11.5129 29.083 11.496 30.1501C11.479 31.8438 11.496 33.5205 11.479 35.2143C11.4621 36.3491 11.3097 36.4845 10.1918 36.5015C9.12478 36.5184 8.05774 36.5184 6.9907 36.5184Z" fill="url(#paint0_linear)"/>
<path d="M4.07762 16.0593C5.11078 16.0593 6.16089 16.0762 7.19405 16.0593C7.95622 16.0424 8.10865 15.873 8.10865 14.8737C8.12559 13.0614 8.12559 11.2492 8.10865 9.45383C8.09172 8.47147 7.95622 8.28516 7.17711 8.28516C5.05997 8.26823 2.95977 8.26823 0.842624 8.28516C0.114327 8.28516 0.0127029 8.42066 0.0127029 9.40301C-0.00423428 11.2492 -0.00423428 13.0953 0.0127029 14.9415C0.0127029 15.9408 0.114326 16.0424 0.944245 16.0593C1.99435 16.0762 3.02751 16.0593 4.07762 16.0593Z" fill="url(#paint1_linear)"/>
<path d="M98.6885 48.8152C98.6885 45.4278 98.6885 42.0573 98.6885 38.6699C98.6885 37.4335 98.6716 37.4674 97.5368 37.2811C93.4888 36.6544 90.3215 34.588 88.594 30.7433C87.1712 27.5591 87.1374 24.2056 88.6956 20.9706C90.5587 17.1089 93.692 15.1442 97.7739 14.6869C98.4514 14.6192 98.6715 14.399 98.6038 13.6537C98.5022 12.6036 98.6038 11.5535 98.6207 10.5034C98.6377 9.4364 98.6716 8.3863 98.6716 7.31926C98.6885 5.32068 98.6885 3.30516 98.6716 1.30657C98.6716 0.120975 98.5869 0.0362897 97.4182 0.0362897C92.2354 0.0193526 87.0696 0.0193528 81.8868 0.0193528H74.5531C74.5531 0.120976 74.5361 0.730712 74.5192 0.815398C74.4684 1.06945 74.1296 1.44207 73.9603 1.4082C73.7062 1.37432 73.2997 1.06946 73.2828 0.832336C73.2658 0.730713 73.2659 0.120976 73.2659 0.00241594C63.0358 0.00241594 52.8058 0.00241594 42.5758 0.00241594C42.2709 0.00241594 41.966 0.0193531 41.6611 0.00241594C40.9837 -0.0314583 40.6957 0.290348 40.6957 1.00171C40.7127 2.64461 40.7127 4.30445 40.6957 5.96429C40.6788 7.14989 40.5264 7.33619 39.3577 7.33619C36.8341 7.35313 34.2935 7.35313 31.7699 7.33619C30.8044 7.33619 30.7706 7.23457 30.8044 6.23528C30.8383 4.54157 30.8383 2.84786 30.8214 1.17108C30.8044 0.256473 30.6181 0.0362897 29.7374 0.0362897C26.892 0.0193526 24.0635 0.03629 21.235 0.0193528C20.5405 0.0193528 20.2695 0.341159 20.2865 1.01864C20.3034 2.86479 20.2695 4.71094 20.2865 6.55709C20.3034 7.48863 20.422 7.62413 21.3874 7.62413C23.911 7.64106 26.4516 7.62413 28.9752 7.62413C30.3641 7.62413 30.3641 7.62413 30.3641 9.06378C30.3641 10.6389 30.3641 12.2141 30.3641 13.7892C30.3641 15.0426 30.4488 15.1273 31.6682 15.1273C37.2744 15.1273 42.8637 15.1273 48.4529 15.1273C50.4854 15.1273 50.4007 14.9918 50.4007 17.1089C50.4007 18.3623 50.4177 19.6326 50.4007 20.8859C50.3838 21.8683 50.2822 21.9699 49.3337 21.9868C47.4198 22.0038 45.5059 21.9868 43.592 21.9868C42.1185 21.9868 42.0846 22.0207 42.0846 23.4773C42.0846 24.9678 42.0846 26.4752 42.0846 27.9656C42.0846 28.4229 42.1015 28.931 42.1015 28.931C42.1015 28.931 42.2539 28.931 42.4064 28.931C44.2356 28.931 46.0648 28.931 47.911 28.931C48.4868 28.931 48.7578 29.1851 48.7578 29.7779C48.7578 31.624 48.7578 33.4533 48.7578 35.2994C48.7578 35.96 48.4529 36.1971 47.8432 36.1801C46.9625 36.1632 46.0817 36.1801 45.201 36.1801C44.2864 36.1801 43.3718 36.1632 42.4572 36.1801C41.8813 36.1801 41.6103 35.943 41.6103 35.3502C41.6103 33.5041 41.6103 31.6749 41.6103 29.8287C41.6103 29.6932 41.6103 29.49 41.6103 29.49C41.6103 29.49 41.0853 29.5238 40.5433 29.5238C34.4121 29.5238 28.2808 29.5238 22.1496 29.5238C21.8447 29.5238 21.5398 29.5408 21.235 29.5238C20.5405 29.49 20.2865 29.8457 20.2865 30.5231C20.3034 32.3693 20.2695 34.2154 20.3034 36.0616C20.3204 36.9931 20.4389 37.1286 21.4043 37.1286C24.2836 37.1456 27.146 37.1286 30.0253 37.1286C30.3302 37.1286 30.6351 37.1286 30.9399 37.1456C31.4481 37.1625 31.719 37.4165 31.719 37.9585C31.719 39.8386 31.719 41.7355 31.719 43.6155C31.719 44.2761 31.3295 44.3777 30.8214 44.3777C29.5172 44.3608 28.2131 44.3777 26.9089 44.3777C22.9964 44.3777 19.0839 44.3777 15.1715 44.3777C13.8504 44.3777 13.8165 44.4285 13.7996 45.7666C13.7996 47.3756 13.7996 48.9846 13.7996 50.6106C13.7996 51.9317 13.8504 51.9994 15.1715 51.9994C22.844 51.9994 30.4996 51.9994 38.1721 51.9994H43.575H71.4028C71.6399 51.9994 71.8601 51.9994 72.0972 51.9994C73.0626 51.9486 73.1473 51.8639 73.1812 50.8985C73.1981 50.3904 73.1303 49.8653 73.232 49.3742C73.2828 49.1201 73.6554 48.7814 73.8756 48.7983C74.0958 48.7983 74.4345 49.137 74.5023 49.3911C74.6039 49.7976 74.5361 50.2549 74.5361 50.6783C74.5531 51.9317 74.6039 51.9825 75.8742 51.9994C75.9927 51.9994 76.1113 51.9994 76.2129 51.9994C83.1063 51.9994 90.0167 51.9994 96.9101 51.9994C97.1811 51.9994 97.4521 51.9825 97.7231 51.9994C98.4006 52.0164 98.7054 51.6607 98.7054 50.9832C98.6716 50.238 98.6885 49.5266 98.6885 48.8152ZM73.2828 5.60861C73.2997 5.37149 73.7062 5.06662 73.9603 5.01581C74.1296 4.98193 74.4684 5.35455 74.5361 5.59167C74.6208 6.03204 74.5531 6.50628 74.5531 6.98052C74.5531 7.43782 74.6208 7.929 74.5361 8.36936C74.4853 8.62342 74.1466 8.99604 73.9772 8.96216C73.7232 8.92829 73.3167 8.62342 73.2997 8.3863C73.215 7.47169 73.1981 6.54015 73.2828 5.60861ZM74.5361 44.5979C74.5192 44.852 74.1466 45.2415 73.9264 45.2584C73.7062 45.2584 73.3336 44.9028 73.2828 44.6487C73.1812 44.1745 73.2489 43.6494 73.2489 43.1413C73.2489 42.684 73.1642 42.1928 73.2828 41.7525C73.3505 41.4815 73.6723 41.0919 73.8925 41.0919C74.1127 41.0919 74.5192 41.4645 74.5361 41.7016C74.6039 42.6671 74.6039 43.6325 74.5361 44.5979ZM74.5192 27.6608C74.4684 27.9148 74.0958 28.2197 73.8417 28.2536C73.6723 28.2874 73.2828 27.8979 73.2659 27.6777C73.1981 26.6276 73.1981 25.5606 73.2659 24.5105C73.2828 24.2564 73.6723 23.8668 73.8925 23.8499C74.1127 23.8499 74.4684 24.2225 74.5192 24.4935C74.6208 24.9678 74.5531 25.4928 74.5531 26.0009C74.5531 26.5598 74.6208 27.1357 74.5192 27.6608ZM73.2828 34.0799C73.3167 33.8428 73.6893 33.4871 73.8586 33.5041C74.1127 33.5549 74.5192 33.8598 74.5361 34.0969C74.6039 35.1809 74.6039 36.2818 74.5361 37.3657C74.5192 37.569 74.1466 37.9416 73.9603 37.9247C73.7062 37.8908 73.3336 37.6029 73.2828 37.3488C73.1812 36.8237 73.2489 36.2648 73.2489 35.7228C73.2489 35.1639 73.1981 34.605 73.2828 34.0799ZM74.5361 17.9388C74.4684 18.2098 74.1466 18.5994 73.9264 18.5994C73.7062 18.5994 73.2997 18.2268 73.2828 17.9897C73.1981 17.0242 73.1981 16.0588 73.2828 15.0934C73.2997 14.8393 73.6554 14.4837 73.9095 14.4159C74.3837 14.2974 74.57 14.6869 74.5869 15.1781C74.5869 15.6354 74.5869 16.0927 74.5869 16.5669C74.57 17.0242 74.6378 17.5154 74.5361 17.9388Z" fill="url(#paint2_linear)"/>
<defs>
<linearGradient id="paint0_linear" x1="2.44038" y1="28.9419" x2="99.9756" y2="28.9419" gradientUnits="userSpaceOnUse">
<stop stop-color="#390796"/>
<stop offset="1" stop-color="#D95C9B"/>
</linearGradient>
<linearGradient id="paint1_linear" x1="2.44049" y1="12.1645" x2="99.9757" y2="12.1645" gradientUnits="userSpaceOnUse">
<stop stop-color="#390796"/>
<stop offset="1" stop-color="#D95C9B"/>
</linearGradient>
<linearGradient id="paint2_linear" x1="2.44052" y1="25.9954" x2="99.9757" y2="25.9954" gradientUnits="userSpaceOnUse">
<stop stop-color="#390796"/>
<stop offset="1" stop-color="#D95C9B"/>
</linearGradient>
</defs>
</svg>
