<svg width="29" height="30" viewBox="0 0 29 30" fill="none" xmlns="http://www.w3.org/2000/svg">
<path d="M17.5835 3.00033L25.8989 18.0967C26.6983 19.548 26.1698 21.3725 24.7186 22.1719L12.7628 28.7573" stroke="#390796" stroke-linecap="round"/>
<path d="M2.84567 11.8496C2.58607 11.3783 2.59906 10.8104 2.88059 10.3603C3.46043 9.43343 4.37182 8.00461 5.24652 6.74917C5.68433 6.12077 6.10828 5.54257 6.47394 5.09458C6.65693 4.87038 6.82059 4.68465 6.96044 4.5437C7.10729 4.39568 7.20243 4.32332 7.24853 4.29792C7.29464 4.27253 7.40665 4.23079 7.61024 4.18577C7.80411 4.14291 8.04856 4.10385 8.33585 4.069C8.90992 3.99937 9.62519 3.95007 10.3903 3.91587C11.9189 3.84754 13.6136 3.84085 14.7069 3.84615C15.2378 3.84872 15.7248 4.14129 15.9844 4.61258L23.7085 18.6356C24.1082 19.3612 23.844 20.2735 23.1184 20.6732L12.6074 26.4628C11.8818 26.8625 10.9695 26.5983 10.5698 25.8727L2.84567 11.8496Z" stroke="url(#paint0_linear)"/>
<circle cx="9.05566" cy="7.93262" r="1.5" fill="#DF0E77"/>
<defs>
<linearGradient id="paint0_linear" x1="7.0073" y1="3.85997" x2="18.1041" y2="24.006" gradientUnits="userSpaceOnUse">
<stop stop-color="#DF0E77"/>
<stop offset="1" stop-color="#390796"/>
</linearGradient>
</defs>
</svg>
